G75*
%MOIN*%
%OFA0B0*%
%FSLAX25Y25*%
%IPPOS*%
%LPD*%
%AMOC8*
5,1,8,0,0,1.08239X$1,22.5*
%
%ADD10C,0.00000*%
%ADD11C,0.00800*%
%ADD12C,0.00500*%
%ADD13C,0.00600*%
%ADD14C,0.01000*%
%ADD15C,0.00200*%
%ADD16C,0.00700*%
%ADD17R,0.02500X0.03000*%
%ADD18R,0.11000X0.05000*%
%ADD19R,0.02400X0.03400*%
%ADD20R,0.03400X0.02400*%
%ADD21C,0.00050*%
%ADD22C,0.00400*%
D10*
X0006800Y0006800D02*
X0006800Y0206761D01*
X0285501Y0206761D01*
X0285501Y0006800D01*
X0006800Y0006800D01*
X0010501Y0016800D02*
X0010503Y0016958D01*
X0010509Y0017116D01*
X0010519Y0017274D01*
X0010533Y0017432D01*
X0010551Y0017589D01*
X0010572Y0017746D01*
X0010598Y0017902D01*
X0010628Y0018058D01*
X0010661Y0018213D01*
X0010699Y0018366D01*
X0010740Y0018519D01*
X0010785Y0018671D01*
X0010834Y0018822D01*
X0010887Y0018971D01*
X0010943Y0019119D01*
X0011003Y0019265D01*
X0011067Y0019410D01*
X0011135Y0019553D01*
X0011206Y0019695D01*
X0011280Y0019835D01*
X0011358Y0019972D01*
X0011440Y0020108D01*
X0011524Y0020242D01*
X0011613Y0020373D01*
X0011704Y0020502D01*
X0011799Y0020629D01*
X0011896Y0020754D01*
X0011997Y0020876D01*
X0012101Y0020995D01*
X0012208Y0021112D01*
X0012318Y0021226D01*
X0012431Y0021337D01*
X0012546Y0021446D01*
X0012664Y0021551D01*
X0012785Y0021653D01*
X0012908Y0021753D01*
X0013034Y0021849D01*
X0013162Y0021942D01*
X0013292Y0022032D01*
X0013425Y0022118D01*
X0013560Y0022202D01*
X0013696Y0022281D01*
X0013835Y0022358D01*
X0013976Y0022430D01*
X0014118Y0022500D01*
X0014262Y0022565D01*
X0014408Y0022627D01*
X0014555Y0022685D01*
X0014704Y0022740D01*
X0014854Y0022791D01*
X0015005Y0022838D01*
X0015157Y0022881D01*
X0015310Y0022920D01*
X0015465Y0022956D01*
X0015620Y0022987D01*
X0015776Y0023015D01*
X0015932Y0023039D01*
X0016089Y0023059D01*
X0016247Y0023075D01*
X0016404Y0023087D01*
X0016563Y0023095D01*
X0016721Y0023099D01*
X0016879Y0023099D01*
X0017037Y0023095D01*
X0017196Y0023087D01*
X0017353Y0023075D01*
X0017511Y0023059D01*
X0017668Y0023039D01*
X0017824Y0023015D01*
X0017980Y0022987D01*
X0018135Y0022956D01*
X0018290Y0022920D01*
X0018443Y0022881D01*
X0018595Y0022838D01*
X0018746Y0022791D01*
X0018896Y0022740D01*
X0019045Y0022685D01*
X0019192Y0022627D01*
X0019338Y0022565D01*
X0019482Y0022500D01*
X0019624Y0022430D01*
X0019765Y0022358D01*
X0019904Y0022281D01*
X0020040Y0022202D01*
X0020175Y0022118D01*
X0020308Y0022032D01*
X0020438Y0021942D01*
X0020566Y0021849D01*
X0020692Y0021753D01*
X0020815Y0021653D01*
X0020936Y0021551D01*
X0021054Y0021446D01*
X0021169Y0021337D01*
X0021282Y0021226D01*
X0021392Y0021112D01*
X0021499Y0020995D01*
X0021603Y0020876D01*
X0021704Y0020754D01*
X0021801Y0020629D01*
X0021896Y0020502D01*
X0021987Y0020373D01*
X0022076Y0020242D01*
X0022160Y0020108D01*
X0022242Y0019972D01*
X0022320Y0019835D01*
X0022394Y0019695D01*
X0022465Y0019553D01*
X0022533Y0019410D01*
X0022597Y0019265D01*
X0022657Y0019119D01*
X0022713Y0018971D01*
X0022766Y0018822D01*
X0022815Y0018671D01*
X0022860Y0018519D01*
X0022901Y0018366D01*
X0022939Y0018213D01*
X0022972Y0018058D01*
X0023002Y0017902D01*
X0023028Y0017746D01*
X0023049Y0017589D01*
X0023067Y0017432D01*
X0023081Y0017274D01*
X0023091Y0017116D01*
X0023097Y0016958D01*
X0023099Y0016800D01*
X0023097Y0016642D01*
X0023091Y0016484D01*
X0023081Y0016326D01*
X0023067Y0016168D01*
X0023049Y0016011D01*
X0023028Y0015854D01*
X0023002Y0015698D01*
X0022972Y0015542D01*
X0022939Y0015387D01*
X0022901Y0015234D01*
X0022860Y0015081D01*
X0022815Y0014929D01*
X0022766Y0014778D01*
X0022713Y0014629D01*
X0022657Y0014481D01*
X0022597Y0014335D01*
X0022533Y0014190D01*
X0022465Y0014047D01*
X0022394Y0013905D01*
X0022320Y0013765D01*
X0022242Y0013628D01*
X0022160Y0013492D01*
X0022076Y0013358D01*
X0021987Y0013227D01*
X0021896Y0013098D01*
X0021801Y0012971D01*
X0021704Y0012846D01*
X0021603Y0012724D01*
X0021499Y0012605D01*
X0021392Y0012488D01*
X0021282Y0012374D01*
X0021169Y0012263D01*
X0021054Y0012154D01*
X0020936Y0012049D01*
X0020815Y0011947D01*
X0020692Y0011847D01*
X0020566Y0011751D01*
X0020438Y0011658D01*
X0020308Y0011568D01*
X0020175Y0011482D01*
X0020040Y0011398D01*
X0019904Y0011319D01*
X0019765Y0011242D01*
X0019624Y0011170D01*
X0019482Y0011100D01*
X0019338Y0011035D01*
X0019192Y0010973D01*
X0019045Y0010915D01*
X0018896Y0010860D01*
X0018746Y0010809D01*
X0018595Y0010762D01*
X0018443Y0010719D01*
X0018290Y0010680D01*
X0018135Y0010644D01*
X0017980Y0010613D01*
X0017824Y0010585D01*
X0017668Y0010561D01*
X0017511Y0010541D01*
X0017353Y0010525D01*
X0017196Y0010513D01*
X0017037Y0010505D01*
X0016879Y0010501D01*
X0016721Y0010501D01*
X0016563Y0010505D01*
X0016404Y0010513D01*
X0016247Y0010525D01*
X0016089Y0010541D01*
X0015932Y0010561D01*
X0015776Y0010585D01*
X0015620Y0010613D01*
X0015465Y0010644D01*
X0015310Y0010680D01*
X0015157Y0010719D01*
X0015005Y0010762D01*
X0014854Y0010809D01*
X0014704Y0010860D01*
X0014555Y0010915D01*
X0014408Y0010973D01*
X0014262Y0011035D01*
X0014118Y0011100D01*
X0013976Y0011170D01*
X0013835Y0011242D01*
X0013696Y0011319D01*
X0013560Y0011398D01*
X0013425Y0011482D01*
X0013292Y0011568D01*
X0013162Y0011658D01*
X0013034Y0011751D01*
X0012908Y0011847D01*
X0012785Y0011947D01*
X0012664Y0012049D01*
X0012546Y0012154D01*
X0012431Y0012263D01*
X0012318Y0012374D01*
X0012208Y0012488D01*
X0012101Y0012605D01*
X0011997Y0012724D01*
X0011896Y0012846D01*
X0011799Y0012971D01*
X0011704Y0013098D01*
X0011613Y0013227D01*
X0011524Y0013358D01*
X0011440Y0013492D01*
X0011358Y0013628D01*
X0011280Y0013765D01*
X0011206Y0013905D01*
X0011135Y0014047D01*
X0011067Y0014190D01*
X0011003Y0014335D01*
X0010943Y0014481D01*
X0010887Y0014629D01*
X0010834Y0014778D01*
X0010785Y0014929D01*
X0010740Y0015081D01*
X0010699Y0015234D01*
X0010661Y0015387D01*
X0010628Y0015542D01*
X0010598Y0015698D01*
X0010572Y0015854D01*
X0010551Y0016011D01*
X0010533Y0016168D01*
X0010519Y0016326D01*
X0010509Y0016484D01*
X0010503Y0016642D01*
X0010501Y0016800D01*
X0129300Y0181800D02*
X0129302Y0181961D01*
X0129308Y0182121D01*
X0129318Y0182282D01*
X0129332Y0182442D01*
X0129350Y0182602D01*
X0129371Y0182761D01*
X0129397Y0182920D01*
X0129427Y0183078D01*
X0129460Y0183235D01*
X0129498Y0183392D01*
X0129539Y0183547D01*
X0129584Y0183701D01*
X0129633Y0183854D01*
X0129686Y0184006D01*
X0129742Y0184157D01*
X0129803Y0184306D01*
X0129866Y0184454D01*
X0129934Y0184600D01*
X0130005Y0184744D01*
X0130079Y0184886D01*
X0130157Y0185027D01*
X0130239Y0185165D01*
X0130324Y0185302D01*
X0130412Y0185436D01*
X0130504Y0185568D01*
X0130599Y0185698D01*
X0130697Y0185826D01*
X0130798Y0185951D01*
X0130902Y0186073D01*
X0131009Y0186193D01*
X0131119Y0186310D01*
X0131232Y0186425D01*
X0131348Y0186536D01*
X0131467Y0186645D01*
X0131588Y0186750D01*
X0131712Y0186853D01*
X0131838Y0186953D01*
X0131966Y0187049D01*
X0132097Y0187142D01*
X0132231Y0187232D01*
X0132366Y0187319D01*
X0132504Y0187402D01*
X0132643Y0187482D01*
X0132785Y0187558D01*
X0132928Y0187631D01*
X0133073Y0187700D01*
X0133220Y0187766D01*
X0133368Y0187828D01*
X0133518Y0187886D01*
X0133669Y0187941D01*
X0133822Y0187992D01*
X0133976Y0188039D01*
X0134131Y0188082D01*
X0134287Y0188121D01*
X0134443Y0188157D01*
X0134601Y0188188D01*
X0134759Y0188216D01*
X0134918Y0188240D01*
X0135078Y0188260D01*
X0135238Y0188276D01*
X0135398Y0188288D01*
X0135559Y0188296D01*
X0135720Y0188300D01*
X0135880Y0188300D01*
X0136041Y0188296D01*
X0136202Y0188288D01*
X0136362Y0188276D01*
X0136522Y0188260D01*
X0136682Y0188240D01*
X0136841Y0188216D01*
X0136999Y0188188D01*
X0137157Y0188157D01*
X0137313Y0188121D01*
X0137469Y0188082D01*
X0137624Y0188039D01*
X0137778Y0187992D01*
X0137931Y0187941D01*
X0138082Y0187886D01*
X0138232Y0187828D01*
X0138380Y0187766D01*
X0138527Y0187700D01*
X0138672Y0187631D01*
X0138815Y0187558D01*
X0138957Y0187482D01*
X0139096Y0187402D01*
X0139234Y0187319D01*
X0139369Y0187232D01*
X0139503Y0187142D01*
X0139634Y0187049D01*
X0139762Y0186953D01*
X0139888Y0186853D01*
X0140012Y0186750D01*
X0140133Y0186645D01*
X0140252Y0186536D01*
X0140368Y0186425D01*
X0140481Y0186310D01*
X0140591Y0186193D01*
X0140698Y0186073D01*
X0140802Y0185951D01*
X0140903Y0185826D01*
X0141001Y0185698D01*
X0141096Y0185568D01*
X0141188Y0185436D01*
X0141276Y0185302D01*
X0141361Y0185165D01*
X0141443Y0185027D01*
X0141521Y0184886D01*
X0141595Y0184744D01*
X0141666Y0184600D01*
X0141734Y0184454D01*
X0141797Y0184306D01*
X0141858Y0184157D01*
X0141914Y0184006D01*
X0141967Y0183854D01*
X0142016Y0183701D01*
X0142061Y0183547D01*
X0142102Y0183392D01*
X0142140Y0183235D01*
X0142173Y0183078D01*
X0142203Y0182920D01*
X0142229Y0182761D01*
X0142250Y0182602D01*
X0142268Y0182442D01*
X0142282Y0182282D01*
X0142292Y0182121D01*
X0142298Y0181961D01*
X0142300Y0181800D01*
X0142298Y0181639D01*
X0142292Y0181479D01*
X0142282Y0181318D01*
X0142268Y0181158D01*
X0142250Y0180998D01*
X0142229Y0180839D01*
X0142203Y0180680D01*
X0142173Y0180522D01*
X0142140Y0180365D01*
X0142102Y0180208D01*
X0142061Y0180053D01*
X0142016Y0179899D01*
X0141967Y0179746D01*
X0141914Y0179594D01*
X0141858Y0179443D01*
X0141797Y0179294D01*
X0141734Y0179146D01*
X0141666Y0179000D01*
X0141595Y0178856D01*
X0141521Y0178714D01*
X0141443Y0178573D01*
X0141361Y0178435D01*
X0141276Y0178298D01*
X0141188Y0178164D01*
X0141096Y0178032D01*
X0141001Y0177902D01*
X0140903Y0177774D01*
X0140802Y0177649D01*
X0140698Y0177527D01*
X0140591Y0177407D01*
X0140481Y0177290D01*
X0140368Y0177175D01*
X0140252Y0177064D01*
X0140133Y0176955D01*
X0140012Y0176850D01*
X0139888Y0176747D01*
X0139762Y0176647D01*
X0139634Y0176551D01*
X0139503Y0176458D01*
X0139369Y0176368D01*
X0139234Y0176281D01*
X0139096Y0176198D01*
X0138957Y0176118D01*
X0138815Y0176042D01*
X0138672Y0175969D01*
X0138527Y0175900D01*
X0138380Y0175834D01*
X0138232Y0175772D01*
X0138082Y0175714D01*
X0137931Y0175659D01*
X0137778Y0175608D01*
X0137624Y0175561D01*
X0137469Y0175518D01*
X0137313Y0175479D01*
X0137157Y0175443D01*
X0136999Y0175412D01*
X0136841Y0175384D01*
X0136682Y0175360D01*
X0136522Y0175340D01*
X0136362Y0175324D01*
X0136202Y0175312D01*
X0136041Y0175304D01*
X0135880Y0175300D01*
X0135720Y0175300D01*
X0135559Y0175304D01*
X0135398Y0175312D01*
X0135238Y0175324D01*
X0135078Y0175340D01*
X0134918Y0175360D01*
X0134759Y0175384D01*
X0134601Y0175412D01*
X0134443Y0175443D01*
X0134287Y0175479D01*
X0134131Y0175518D01*
X0133976Y0175561D01*
X0133822Y0175608D01*
X0133669Y0175659D01*
X0133518Y0175714D01*
X0133368Y0175772D01*
X0133220Y0175834D01*
X0133073Y0175900D01*
X0132928Y0175969D01*
X0132785Y0176042D01*
X0132643Y0176118D01*
X0132504Y0176198D01*
X0132366Y0176281D01*
X0132231Y0176368D01*
X0132097Y0176458D01*
X0131966Y0176551D01*
X0131838Y0176647D01*
X0131712Y0176747D01*
X0131588Y0176850D01*
X0131467Y0176955D01*
X0131348Y0177064D01*
X0131232Y0177175D01*
X0131119Y0177290D01*
X0131009Y0177407D01*
X0130902Y0177527D01*
X0130798Y0177649D01*
X0130697Y0177774D01*
X0130599Y0177902D01*
X0130504Y0178032D01*
X0130412Y0178164D01*
X0130324Y0178298D01*
X0130239Y0178435D01*
X0130157Y0178573D01*
X0130079Y0178714D01*
X0130005Y0178856D01*
X0129934Y0179000D01*
X0129866Y0179146D01*
X0129803Y0179294D01*
X0129742Y0179443D01*
X0129686Y0179594D01*
X0129633Y0179746D01*
X0129584Y0179899D01*
X0129539Y0180053D01*
X0129498Y0180208D01*
X0129460Y0180365D01*
X0129427Y0180522D01*
X0129397Y0180680D01*
X0129371Y0180839D01*
X0129350Y0180998D01*
X0129332Y0181158D01*
X0129318Y0181318D01*
X0129308Y0181479D01*
X0129302Y0181639D01*
X0129300Y0181800D01*
X0265501Y0191800D02*
X0265503Y0191958D01*
X0265509Y0192116D01*
X0265519Y0192274D01*
X0265533Y0192432D01*
X0265551Y0192589D01*
X0265572Y0192746D01*
X0265598Y0192902D01*
X0265628Y0193058D01*
X0265661Y0193213D01*
X0265699Y0193366D01*
X0265740Y0193519D01*
X0265785Y0193671D01*
X0265834Y0193822D01*
X0265887Y0193971D01*
X0265943Y0194119D01*
X0266003Y0194265D01*
X0266067Y0194410D01*
X0266135Y0194553D01*
X0266206Y0194695D01*
X0266280Y0194835D01*
X0266358Y0194972D01*
X0266440Y0195108D01*
X0266524Y0195242D01*
X0266613Y0195373D01*
X0266704Y0195502D01*
X0266799Y0195629D01*
X0266896Y0195754D01*
X0266997Y0195876D01*
X0267101Y0195995D01*
X0267208Y0196112D01*
X0267318Y0196226D01*
X0267431Y0196337D01*
X0267546Y0196446D01*
X0267664Y0196551D01*
X0267785Y0196653D01*
X0267908Y0196753D01*
X0268034Y0196849D01*
X0268162Y0196942D01*
X0268292Y0197032D01*
X0268425Y0197118D01*
X0268560Y0197202D01*
X0268696Y0197281D01*
X0268835Y0197358D01*
X0268976Y0197430D01*
X0269118Y0197500D01*
X0269262Y0197565D01*
X0269408Y0197627D01*
X0269555Y0197685D01*
X0269704Y0197740D01*
X0269854Y0197791D01*
X0270005Y0197838D01*
X0270157Y0197881D01*
X0270310Y0197920D01*
X0270465Y0197956D01*
X0270620Y0197987D01*
X0270776Y0198015D01*
X0270932Y0198039D01*
X0271089Y0198059D01*
X0271247Y0198075D01*
X0271404Y0198087D01*
X0271563Y0198095D01*
X0271721Y0198099D01*
X0271879Y0198099D01*
X0272037Y0198095D01*
X0272196Y0198087D01*
X0272353Y0198075D01*
X0272511Y0198059D01*
X0272668Y0198039D01*
X0272824Y0198015D01*
X0272980Y0197987D01*
X0273135Y0197956D01*
X0273290Y0197920D01*
X0273443Y0197881D01*
X0273595Y0197838D01*
X0273746Y0197791D01*
X0273896Y0197740D01*
X0274045Y0197685D01*
X0274192Y0197627D01*
X0274338Y0197565D01*
X0274482Y0197500D01*
X0274624Y0197430D01*
X0274765Y0197358D01*
X0274904Y0197281D01*
X0275040Y0197202D01*
X0275175Y0197118D01*
X0275308Y0197032D01*
X0275438Y0196942D01*
X0275566Y0196849D01*
X0275692Y0196753D01*
X0275815Y0196653D01*
X0275936Y0196551D01*
X0276054Y0196446D01*
X0276169Y0196337D01*
X0276282Y0196226D01*
X0276392Y0196112D01*
X0276499Y0195995D01*
X0276603Y0195876D01*
X0276704Y0195754D01*
X0276801Y0195629D01*
X0276896Y0195502D01*
X0276987Y0195373D01*
X0277076Y0195242D01*
X0277160Y0195108D01*
X0277242Y0194972D01*
X0277320Y0194835D01*
X0277394Y0194695D01*
X0277465Y0194553D01*
X0277533Y0194410D01*
X0277597Y0194265D01*
X0277657Y0194119D01*
X0277713Y0193971D01*
X0277766Y0193822D01*
X0277815Y0193671D01*
X0277860Y0193519D01*
X0277901Y0193366D01*
X0277939Y0193213D01*
X0277972Y0193058D01*
X0278002Y0192902D01*
X0278028Y0192746D01*
X0278049Y0192589D01*
X0278067Y0192432D01*
X0278081Y0192274D01*
X0278091Y0192116D01*
X0278097Y0191958D01*
X0278099Y0191800D01*
X0278097Y0191642D01*
X0278091Y0191484D01*
X0278081Y0191326D01*
X0278067Y0191168D01*
X0278049Y0191011D01*
X0278028Y0190854D01*
X0278002Y0190698D01*
X0277972Y0190542D01*
X0277939Y0190387D01*
X0277901Y0190234D01*
X0277860Y0190081D01*
X0277815Y0189929D01*
X0277766Y0189778D01*
X0277713Y0189629D01*
X0277657Y0189481D01*
X0277597Y0189335D01*
X0277533Y0189190D01*
X0277465Y0189047D01*
X0277394Y0188905D01*
X0277320Y0188765D01*
X0277242Y0188628D01*
X0277160Y0188492D01*
X0277076Y0188358D01*
X0276987Y0188227D01*
X0276896Y0188098D01*
X0276801Y0187971D01*
X0276704Y0187846D01*
X0276603Y0187724D01*
X0276499Y0187605D01*
X0276392Y0187488D01*
X0276282Y0187374D01*
X0276169Y0187263D01*
X0276054Y0187154D01*
X0275936Y0187049D01*
X0275815Y0186947D01*
X0275692Y0186847D01*
X0275566Y0186751D01*
X0275438Y0186658D01*
X0275308Y0186568D01*
X0275175Y0186482D01*
X0275040Y0186398D01*
X0274904Y0186319D01*
X0274765Y0186242D01*
X0274624Y0186170D01*
X0274482Y0186100D01*
X0274338Y0186035D01*
X0274192Y0185973D01*
X0274045Y0185915D01*
X0273896Y0185860D01*
X0273746Y0185809D01*
X0273595Y0185762D01*
X0273443Y0185719D01*
X0273290Y0185680D01*
X0273135Y0185644D01*
X0272980Y0185613D01*
X0272824Y0185585D01*
X0272668Y0185561D01*
X0272511Y0185541D01*
X0272353Y0185525D01*
X0272196Y0185513D01*
X0272037Y0185505D01*
X0271879Y0185501D01*
X0271721Y0185501D01*
X0271563Y0185505D01*
X0271404Y0185513D01*
X0271247Y0185525D01*
X0271089Y0185541D01*
X0270932Y0185561D01*
X0270776Y0185585D01*
X0270620Y0185613D01*
X0270465Y0185644D01*
X0270310Y0185680D01*
X0270157Y0185719D01*
X0270005Y0185762D01*
X0269854Y0185809D01*
X0269704Y0185860D01*
X0269555Y0185915D01*
X0269408Y0185973D01*
X0269262Y0186035D01*
X0269118Y0186100D01*
X0268976Y0186170D01*
X0268835Y0186242D01*
X0268696Y0186319D01*
X0268560Y0186398D01*
X0268425Y0186482D01*
X0268292Y0186568D01*
X0268162Y0186658D01*
X0268034Y0186751D01*
X0267908Y0186847D01*
X0267785Y0186947D01*
X0267664Y0187049D01*
X0267546Y0187154D01*
X0267431Y0187263D01*
X0267318Y0187374D01*
X0267208Y0187488D01*
X0267101Y0187605D01*
X0266997Y0187724D01*
X0266896Y0187846D01*
X0266799Y0187971D01*
X0266704Y0188098D01*
X0266613Y0188227D01*
X0266524Y0188358D01*
X0266440Y0188492D01*
X0266358Y0188628D01*
X0266280Y0188765D01*
X0266206Y0188905D01*
X0266135Y0189047D01*
X0266067Y0189190D01*
X0266003Y0189335D01*
X0265943Y0189481D01*
X0265887Y0189629D01*
X0265834Y0189778D01*
X0265785Y0189929D01*
X0265740Y0190081D01*
X0265699Y0190234D01*
X0265661Y0190387D01*
X0265628Y0190542D01*
X0265598Y0190698D01*
X0265572Y0190854D01*
X0265551Y0191011D01*
X0265533Y0191168D01*
X0265519Y0191326D01*
X0265509Y0191484D01*
X0265503Y0191642D01*
X0265501Y0191800D01*
D11*
X0269300Y0166800D02*
X0266800Y0164300D01*
X0266800Y0159300D01*
X0269300Y0156800D01*
X0266800Y0154300D01*
X0266800Y0149300D01*
X0269300Y0146800D01*
X0274300Y0146800D01*
X0276800Y0149300D01*
X0276800Y0154300D01*
X0274300Y0156800D01*
X0276800Y0159300D01*
X0276800Y0164300D01*
X0274300Y0166800D01*
X0269300Y0166800D01*
X0231800Y0164300D02*
X0229300Y0161800D01*
X0224300Y0161800D01*
X0221800Y0164300D01*
X0221800Y0169300D01*
X0224300Y0171800D01*
X0221800Y0174300D01*
X0221800Y0179300D01*
X0224300Y0181800D01*
X0221800Y0184300D01*
X0221800Y0189300D01*
X0224300Y0191800D01*
X0229300Y0191800D01*
X0231800Y0189300D01*
X0231800Y0184300D01*
X0229300Y0181800D01*
X0231800Y0179300D01*
X0231800Y0174300D01*
X0229300Y0171800D01*
X0231800Y0169300D01*
X0231800Y0164300D01*
X0201800Y0164300D02*
X0199300Y0161800D01*
X0194300Y0161800D01*
X0191800Y0164300D01*
X0191800Y0169300D01*
X0194300Y0171800D01*
X0191800Y0174300D01*
X0191800Y0179300D01*
X0194300Y0181800D01*
X0191800Y0184300D01*
X0191800Y0189300D01*
X0194300Y0191800D01*
X0199300Y0191800D01*
X0201800Y0189300D01*
X0201800Y0184300D01*
X0199300Y0181800D01*
X0201800Y0179300D01*
X0201800Y0174300D01*
X0199300Y0171800D01*
X0201800Y0169300D01*
X0201800Y0164300D01*
X0166800Y0164300D02*
X0164300Y0161800D01*
X0159300Y0161800D01*
X0156800Y0164300D01*
X0156800Y0169300D01*
X0159300Y0171800D01*
X0156800Y0174300D01*
X0156800Y0179300D01*
X0159300Y0181800D01*
X0156800Y0184300D01*
X0156800Y0189300D01*
X0159300Y0191800D01*
X0164300Y0191800D01*
X0166800Y0189300D01*
X0166800Y0184300D01*
X0164300Y0181800D01*
X0166800Y0179300D01*
X0166800Y0174300D01*
X0164300Y0171800D01*
X0166800Y0169300D01*
X0166800Y0164300D01*
X0159300Y0146800D02*
X0154300Y0146800D01*
X0151800Y0144300D01*
X0149300Y0146800D01*
X0144300Y0146800D01*
X0141800Y0144300D01*
X0141800Y0139300D01*
X0144300Y0136800D01*
X0149300Y0136800D01*
X0151800Y0139300D01*
X0154300Y0136800D01*
X0159300Y0136800D01*
X0161800Y0139300D01*
X0161800Y0144300D01*
X0159300Y0146800D01*
X0131800Y0149300D02*
X0131800Y0144300D01*
X0129300Y0141800D01*
X0124300Y0141800D01*
X0121800Y0144300D01*
X0119300Y0141800D01*
X0114300Y0141800D01*
X0111800Y0144300D01*
X0111800Y0149300D01*
X0114300Y0151800D01*
X0119300Y0151800D01*
X0121800Y0149300D01*
X0124300Y0151800D01*
X0129300Y0151800D01*
X0131800Y0149300D01*
X0061800Y0144300D02*
X0061800Y0139300D01*
X0059300Y0136800D01*
X0054300Y0136800D01*
X0051800Y0139300D01*
X0049300Y0136800D01*
X0044300Y0136800D01*
X0041800Y0139300D01*
X0039300Y0136800D01*
X0034300Y0136800D01*
X0031800Y0139300D01*
X0029300Y0136800D01*
X0024300Y0136800D01*
X0021800Y0139300D01*
X0021800Y0144300D01*
X0024300Y0146800D01*
X0029300Y0146800D01*
X0031800Y0144300D01*
X0034300Y0146800D01*
X0039300Y0146800D01*
X0041800Y0144300D01*
X0044300Y0146800D01*
X0049300Y0146800D01*
X0051800Y0144300D01*
X0054300Y0146800D01*
X0059300Y0146800D01*
X0061800Y0144300D01*
X0044300Y0176800D02*
X0039300Y0176800D01*
X0036800Y0179300D01*
X0036800Y0184300D01*
X0039300Y0186800D01*
X0036800Y0189300D01*
X0036800Y0194300D01*
X0039300Y0196800D01*
X0044300Y0196800D01*
X0046800Y0194300D01*
X0046800Y0189300D01*
X0044300Y0186800D01*
X0046800Y0184300D01*
X0046800Y0179300D01*
X0044300Y0176800D01*
X0026800Y0179300D02*
X0024300Y0176800D01*
X0019300Y0176800D01*
X0016800Y0179300D01*
X0016800Y0184300D01*
X0019300Y0186800D01*
X0016800Y0189300D01*
X0016800Y0194300D01*
X0019300Y0196800D01*
X0024300Y0196800D01*
X0026800Y0194300D01*
X0026800Y0189300D01*
X0024300Y0186800D01*
X0026800Y0184300D01*
X0026800Y0179300D01*
X0034300Y0024792D02*
X0039300Y0024792D01*
X0041800Y0022292D01*
X0044300Y0024792D01*
X0049300Y0024792D01*
X0051800Y0022292D01*
X0051800Y0017292D01*
X0049300Y0014792D01*
X0044300Y0014792D01*
X0041800Y0017292D01*
X0039300Y0014792D01*
X0034300Y0014792D01*
X0031800Y0017292D01*
X0031800Y0022292D01*
X0034300Y0024792D01*
D12*
X0039289Y0012346D02*
X0038538Y0011595D01*
X0038538Y0010845D01*
X0039289Y0010094D01*
X0040790Y0010094D01*
X0041541Y0009343D01*
X0041541Y0008593D01*
X0040790Y0007842D01*
X0039289Y0007842D01*
X0038538Y0008593D01*
X0039289Y0012346D02*
X0040790Y0012346D01*
X0041541Y0011595D01*
X0043142Y0012346D02*
X0043142Y0007842D01*
X0046145Y0007842D01*
X0047746Y0007842D02*
X0047746Y0012346D01*
X0049998Y0012346D01*
X0050749Y0011595D01*
X0050749Y0010094D01*
X0049998Y0009343D01*
X0047746Y0009343D01*
X0011800Y0026800D02*
X0011800Y0131800D01*
X0161800Y0131800D01*
X0161800Y0026800D01*
X0011800Y0026800D01*
X0030122Y0129850D02*
X0030122Y0134354D01*
X0030122Y0132102D02*
X0033125Y0132102D01*
X0034726Y0133603D02*
X0034726Y0130601D01*
X0035477Y0129850D01*
X0036978Y0129850D01*
X0037729Y0130601D01*
X0039330Y0132102D02*
X0042333Y0132102D01*
X0043934Y0132853D02*
X0044685Y0132102D01*
X0046186Y0132102D01*
X0046937Y0131351D01*
X0046937Y0130601D01*
X0046186Y0129850D01*
X0044685Y0129850D01*
X0043934Y0130601D01*
X0043934Y0132853D02*
X0043934Y0133603D01*
X0044685Y0134354D01*
X0046186Y0134354D01*
X0046937Y0133603D01*
X0048538Y0134354D02*
X0050790Y0134354D01*
X0051541Y0133603D01*
X0051541Y0132102D01*
X0050790Y0131351D01*
X0048538Y0131351D01*
X0048538Y0129850D02*
X0048538Y0134354D01*
X0050039Y0131351D02*
X0051541Y0129850D01*
X0053142Y0130601D02*
X0056145Y0133603D01*
X0056145Y0130601D01*
X0055394Y0129850D01*
X0053893Y0129850D01*
X0053142Y0130601D01*
X0053142Y0133603D01*
X0053893Y0134354D01*
X0055394Y0134354D01*
X0056145Y0133603D01*
X0057746Y0132102D02*
X0060749Y0132102D01*
X0059998Y0129850D02*
X0059998Y0134354D01*
X0057746Y0132102D01*
X0037729Y0133603D02*
X0036978Y0134354D01*
X0035477Y0134354D01*
X0034726Y0133603D01*
X0033125Y0134354D02*
X0033125Y0129850D01*
X0052593Y0151050D02*
X0054094Y0151050D01*
X0054845Y0151801D01*
X0056446Y0151050D02*
X0059449Y0151050D01*
X0057947Y0151050D02*
X0057947Y0155554D01*
X0056446Y0154053D01*
X0054845Y0154803D02*
X0054094Y0155554D01*
X0052593Y0155554D01*
X0051842Y0154803D01*
X0051842Y0151801D01*
X0052593Y0151050D01*
X0052249Y0169726D02*
X0052249Y0171978D01*
X0051498Y0172729D01*
X0049997Y0172729D01*
X0049246Y0171978D01*
X0049246Y0169726D01*
X0053750Y0169726D01*
X0053750Y0174330D02*
X0049246Y0174330D01*
X0052249Y0175832D02*
X0053750Y0177333D01*
X0049246Y0177333D01*
X0049246Y0178934D02*
X0049246Y0181186D01*
X0049997Y0181937D01*
X0051498Y0181937D01*
X0052249Y0181186D01*
X0052249Y0178934D01*
X0053750Y0178934D02*
X0049246Y0178934D01*
X0052249Y0180436D02*
X0053750Y0181937D01*
X0054501Y0183538D02*
X0054501Y0186541D01*
X0052999Y0188142D02*
X0053750Y0188893D01*
X0053750Y0190394D01*
X0052999Y0191145D01*
X0052249Y0191145D01*
X0051498Y0190394D01*
X0051498Y0188893D01*
X0050747Y0188142D01*
X0049997Y0188142D01*
X0049246Y0188893D01*
X0049246Y0190394D01*
X0049997Y0191145D01*
X0049246Y0192746D02*
X0053750Y0192746D01*
X0052249Y0194247D01*
X0053750Y0195749D01*
X0049246Y0195749D01*
X0033750Y0195749D02*
X0029246Y0195749D01*
X0029246Y0192746D02*
X0033750Y0195749D01*
X0033750Y0192746D02*
X0029246Y0192746D01*
X0029246Y0191178D02*
X0029246Y0189677D01*
X0029246Y0190427D02*
X0033750Y0190427D01*
X0033750Y0189677D02*
X0033750Y0191178D01*
X0032249Y0188075D02*
X0029246Y0188075D01*
X0032249Y0188075D02*
X0033750Y0186574D01*
X0032249Y0185073D01*
X0029246Y0185073D01*
X0024906Y0172554D02*
X0023405Y0172554D01*
X0022654Y0171803D01*
X0021053Y0171803D02*
X0020302Y0172554D01*
X0018801Y0172554D01*
X0018050Y0171803D01*
X0018050Y0168801D01*
X0018801Y0168050D01*
X0020302Y0168050D01*
X0021053Y0168801D01*
X0022654Y0168050D02*
X0025656Y0171053D01*
X0025656Y0171803D01*
X0024906Y0172554D01*
X0025656Y0168050D02*
X0022654Y0168050D01*
X0052249Y0175832D02*
X0053750Y0174330D01*
X0111750Y0157253D02*
X0111750Y0154250D01*
X0111750Y0156502D02*
X0114753Y0156502D01*
X0114753Y0157253D02*
X0114753Y0154250D01*
X0116354Y0154250D02*
X0119356Y0154250D01*
X0120958Y0154250D02*
X0120958Y0158754D01*
X0122459Y0157253D01*
X0123960Y0158754D01*
X0123960Y0154250D01*
X0125562Y0153499D02*
X0128564Y0153499D01*
X0130166Y0154250D02*
X0132418Y0154250D01*
X0133168Y0155001D01*
X0133168Y0155751D01*
X0132418Y0156502D01*
X0130166Y0156502D01*
X0132418Y0156502D02*
X0133168Y0157253D01*
X0133168Y0158003D01*
X0132418Y0158754D01*
X0130166Y0158754D01*
X0130166Y0154250D01*
X0136271Y0154250D02*
X0136271Y0158754D01*
X0134770Y0158754D02*
X0137772Y0158754D01*
X0141750Y0153754D02*
X0143251Y0152253D01*
X0144753Y0153754D01*
X0144753Y0149250D01*
X0146354Y0150001D02*
X0147105Y0149250D01*
X0148606Y0149250D01*
X0149356Y0150001D01*
X0149356Y0153003D01*
X0148606Y0153754D01*
X0147105Y0153754D01*
X0146354Y0153003D01*
X0146354Y0150001D01*
X0150958Y0149250D02*
X0153210Y0149250D01*
X0153960Y0150001D01*
X0153960Y0153003D01*
X0153210Y0153754D01*
X0150958Y0153754D01*
X0150958Y0149250D01*
X0155562Y0149250D02*
X0155562Y0153754D01*
X0158564Y0153754D01*
X0157063Y0151502D02*
X0155562Y0151502D01*
X0155562Y0149250D02*
X0158564Y0149250D01*
X0160166Y0148499D02*
X0163168Y0148499D01*
X0164770Y0150001D02*
X0165520Y0149250D01*
X0167022Y0149250D01*
X0167772Y0150001D01*
X0167772Y0150751D01*
X0167022Y0151502D01*
X0165520Y0151502D01*
X0164770Y0152253D01*
X0164770Y0153003D01*
X0165520Y0153754D01*
X0167022Y0153754D01*
X0167772Y0153003D01*
X0169374Y0153754D02*
X0169374Y0149250D01*
X0170875Y0150751D01*
X0172376Y0149250D01*
X0172376Y0153754D01*
X0172999Y0169330D02*
X0173750Y0170081D01*
X0173750Y0171582D01*
X0172999Y0172333D01*
X0172249Y0172333D01*
X0171498Y0171582D01*
X0171498Y0170081D01*
X0170747Y0169330D01*
X0169997Y0169330D01*
X0169246Y0170081D01*
X0169246Y0171582D01*
X0169997Y0172333D01*
X0169246Y0173934D02*
X0169246Y0176186D01*
X0169997Y0176937D01*
X0171498Y0176937D01*
X0172249Y0176186D01*
X0172249Y0173934D01*
X0173750Y0173934D02*
X0169246Y0173934D01*
X0172249Y0175436D02*
X0173750Y0176937D01*
X0172249Y0178538D02*
X0173750Y0180039D01*
X0172249Y0181541D01*
X0169246Y0181541D01*
X0169246Y0178538D02*
X0172249Y0178538D01*
X0174501Y0183142D02*
X0174501Y0186145D01*
X0173750Y0187746D02*
X0173750Y0190749D01*
X0173750Y0187746D02*
X0169246Y0187746D01*
X0204246Y0187746D02*
X0204246Y0189998D01*
X0204997Y0190749D01*
X0206498Y0190749D01*
X0207249Y0189998D01*
X0207249Y0187746D01*
X0208750Y0187746D02*
X0204246Y0187746D01*
X0207249Y0189247D02*
X0208750Y0190749D01*
X0209501Y0186145D02*
X0209501Y0183142D01*
X0207249Y0181541D02*
X0204246Y0181541D01*
X0207249Y0181541D02*
X0208750Y0180039D01*
X0207249Y0178538D01*
X0204246Y0178538D01*
X0204997Y0176937D02*
X0206498Y0176937D01*
X0207249Y0176186D01*
X0207249Y0173934D01*
X0208750Y0173934D02*
X0204246Y0173934D01*
X0204246Y0176186D01*
X0204997Y0176937D01*
X0207249Y0175436D02*
X0208750Y0176937D01*
X0207999Y0172333D02*
X0208750Y0171582D01*
X0208750Y0170081D01*
X0207999Y0169330D01*
X0206498Y0170081D02*
X0206498Y0171582D01*
X0207249Y0172333D01*
X0207999Y0172333D01*
X0206498Y0170081D02*
X0205747Y0169330D01*
X0204997Y0169330D01*
X0204246Y0170081D01*
X0204246Y0171582D01*
X0204997Y0172333D01*
X0234246Y0173934D02*
X0235747Y0175436D01*
X0234246Y0176937D01*
X0238750Y0176937D01*
X0237999Y0178538D02*
X0234997Y0178538D01*
X0234246Y0179289D01*
X0234246Y0180790D01*
X0234997Y0181541D01*
X0237999Y0181541D01*
X0238750Y0180790D01*
X0238750Y0179289D01*
X0237999Y0178538D01*
X0237249Y0180039D02*
X0238750Y0181541D01*
X0236498Y0183142D02*
X0236498Y0186145D01*
X0234997Y0187746D02*
X0234246Y0188497D01*
X0234246Y0189998D01*
X0234997Y0190749D01*
X0235747Y0190749D01*
X0238750Y0187746D01*
X0238750Y0190749D01*
X0258046Y0190197D02*
X0258797Y0189446D01*
X0259547Y0189446D01*
X0260298Y0190197D01*
X0260298Y0192449D01*
X0258797Y0192449D02*
X0258046Y0191698D01*
X0258046Y0190197D01*
X0258797Y0192449D02*
X0261799Y0192449D01*
X0262550Y0191698D01*
X0262550Y0190197D01*
X0261799Y0189446D01*
X0262550Y0187845D02*
X0261049Y0186343D01*
X0261049Y0187094D02*
X0261049Y0184842D01*
X0262550Y0184842D02*
X0258046Y0184842D01*
X0258046Y0187094D01*
X0258797Y0187845D01*
X0260298Y0187845D01*
X0261049Y0187094D01*
X0238750Y0173934D02*
X0234246Y0173934D01*
X0252050Y0148554D02*
X0255053Y0148554D01*
X0253551Y0148554D02*
X0253551Y0144050D01*
X0256654Y0144050D02*
X0259656Y0144050D01*
X0258155Y0144050D02*
X0258155Y0148554D01*
X0256654Y0147053D01*
X0256272Y0131300D02*
X0257328Y0131300D01*
X0253552Y0125300D02*
X0270048Y0125300D01*
X0267328Y0131300D02*
X0266272Y0131300D01*
X0279246Y0139726D02*
X0279246Y0141978D01*
X0279997Y0142729D01*
X0280747Y0142729D01*
X0281498Y0141978D01*
X0281498Y0139726D01*
X0283750Y0139726D02*
X0279246Y0139726D01*
X0281498Y0141978D02*
X0282249Y0142729D01*
X0282999Y0142729D01*
X0283750Y0141978D01*
X0283750Y0139726D01*
X0282999Y0144330D02*
X0279246Y0144330D01*
X0279246Y0147333D02*
X0282999Y0147333D01*
X0283750Y0146582D01*
X0283750Y0145081D01*
X0282999Y0144330D01*
X0282999Y0148934D02*
X0283750Y0148934D01*
X0283750Y0151937D01*
X0283750Y0153538D02*
X0283750Y0156541D01*
X0283750Y0158142D02*
X0283750Y0161145D01*
X0283750Y0162746D02*
X0279246Y0162746D01*
X0279246Y0164998D01*
X0279997Y0165749D01*
X0281498Y0165749D01*
X0282249Y0164998D01*
X0282249Y0162746D01*
X0282249Y0164247D02*
X0283750Y0165749D01*
X0279246Y0161145D02*
X0279246Y0158142D01*
X0283750Y0158142D01*
X0281498Y0158142D02*
X0281498Y0159643D01*
X0279997Y0156541D02*
X0279246Y0156541D01*
X0279246Y0153538D01*
X0279246Y0151937D02*
X0279997Y0151937D01*
X0282999Y0148934D01*
X0279246Y0148934D02*
X0279246Y0151937D01*
X0282999Y0153538D02*
X0279997Y0156541D01*
X0282999Y0153538D02*
X0283750Y0153538D01*
X0281800Y0101800D02*
X0191800Y0101800D01*
X0191800Y0011800D01*
X0281800Y0011800D01*
X0281800Y0101800D01*
X0207449Y0136801D02*
X0206698Y0136050D01*
X0205197Y0136050D01*
X0204446Y0136801D01*
X0204446Y0137551D01*
X0205197Y0138302D01*
X0206698Y0138302D01*
X0207449Y0137551D01*
X0207449Y0136801D01*
X0206698Y0138302D02*
X0207449Y0139053D01*
X0207449Y0139803D01*
X0206698Y0140554D01*
X0205197Y0140554D01*
X0204446Y0139803D01*
X0204446Y0139053D01*
X0205197Y0138302D01*
X0202845Y0138302D02*
X0202845Y0139803D01*
X0202094Y0140554D01*
X0199842Y0140554D01*
X0199842Y0136050D01*
X0199842Y0137551D02*
X0202094Y0137551D01*
X0202845Y0138302D01*
X0201343Y0137551D02*
X0202845Y0136050D01*
X0164799Y0097656D02*
X0164049Y0097656D01*
X0163298Y0096906D01*
X0163298Y0094654D01*
X0164799Y0094654D01*
X0165550Y0095405D01*
X0165550Y0096906D01*
X0164799Y0097656D01*
X0161797Y0096155D02*
X0163298Y0094654D01*
X0163298Y0093053D02*
X0164049Y0092302D01*
X0164049Y0090050D01*
X0165550Y0090050D02*
X0161046Y0090050D01*
X0161046Y0092302D01*
X0161797Y0093053D01*
X0163298Y0093053D01*
X0164049Y0091551D02*
X0165550Y0093053D01*
X0161797Y0096155D02*
X0161046Y0097656D01*
X0161046Y0047656D02*
X0161797Y0047656D01*
X0164799Y0044654D01*
X0165550Y0044654D01*
X0165550Y0043053D02*
X0164049Y0041551D01*
X0164049Y0042302D02*
X0164049Y0040050D01*
X0165550Y0040050D02*
X0161046Y0040050D01*
X0161046Y0042302D01*
X0161797Y0043053D01*
X0163298Y0043053D01*
X0164049Y0042302D01*
X0161046Y0044654D02*
X0161046Y0047656D01*
X0141750Y0149250D02*
X0141750Y0153754D01*
X0116354Y0154250D02*
X0116354Y0158754D01*
X0114753Y0157253D02*
X0113251Y0158754D01*
X0111750Y0157253D01*
D13*
X0135800Y0161300D02*
X0086800Y0161300D01*
X0086800Y0202300D01*
X0135800Y0202300D01*
X0135800Y0198800D01*
X0141800Y0198800D01*
X0141800Y0202300D01*
X0149300Y0202300D01*
X0149300Y0161300D01*
X0141800Y0161300D01*
X0141800Y0164800D01*
X0135800Y0164800D01*
X0135800Y0161300D01*
X0128700Y0181800D02*
X0128702Y0181974D01*
X0128709Y0182148D01*
X0128719Y0182322D01*
X0128734Y0182496D01*
X0128753Y0182669D01*
X0128777Y0182842D01*
X0128805Y0183014D01*
X0128836Y0183185D01*
X0128873Y0183356D01*
X0128913Y0183525D01*
X0128957Y0183694D01*
X0129006Y0183861D01*
X0129058Y0184027D01*
X0129115Y0184192D01*
X0129176Y0184355D01*
X0129240Y0184517D01*
X0129309Y0184677D01*
X0129382Y0184836D01*
X0129458Y0184992D01*
X0129538Y0185147D01*
X0129622Y0185300D01*
X0129710Y0185450D01*
X0129802Y0185598D01*
X0129897Y0185745D01*
X0129995Y0185888D01*
X0130097Y0186029D01*
X0130203Y0186168D01*
X0130312Y0186304D01*
X0130424Y0186438D01*
X0130539Y0186568D01*
X0130658Y0186696D01*
X0130780Y0186820D01*
X0130904Y0186942D01*
X0131032Y0187061D01*
X0131162Y0187176D01*
X0131296Y0187288D01*
X0131432Y0187397D01*
X0131571Y0187503D01*
X0131712Y0187605D01*
X0131855Y0187703D01*
X0132002Y0187798D01*
X0132150Y0187890D01*
X0132300Y0187978D01*
X0132453Y0188062D01*
X0132608Y0188142D01*
X0132764Y0188218D01*
X0132923Y0188291D01*
X0133083Y0188360D01*
X0133245Y0188424D01*
X0133408Y0188485D01*
X0133573Y0188542D01*
X0133739Y0188594D01*
X0133906Y0188643D01*
X0134075Y0188687D01*
X0134244Y0188727D01*
X0134415Y0188764D01*
X0134586Y0188795D01*
X0134758Y0188823D01*
X0134931Y0188847D01*
X0135104Y0188866D01*
X0135278Y0188881D01*
X0135452Y0188891D01*
X0135626Y0188898D01*
X0135800Y0188900D01*
X0135974Y0188898D01*
X0136148Y0188891D01*
X0136322Y0188881D01*
X0136496Y0188866D01*
X0136669Y0188847D01*
X0136842Y0188823D01*
X0137014Y0188795D01*
X0137185Y0188764D01*
X0137356Y0188727D01*
X0137525Y0188687D01*
X0137694Y0188643D01*
X0137861Y0188594D01*
X0138027Y0188542D01*
X0138192Y0188485D01*
X0138355Y0188424D01*
X0138517Y0188360D01*
X0138677Y0188291D01*
X0138836Y0188218D01*
X0138992Y0188142D01*
X0139147Y0188062D01*
X0139300Y0187978D01*
X0139450Y0187890D01*
X0139598Y0187798D01*
X0139745Y0187703D01*
X0139888Y0187605D01*
X0140029Y0187503D01*
X0140168Y0187397D01*
X0140304Y0187288D01*
X0140438Y0187176D01*
X0140568Y0187061D01*
X0140696Y0186942D01*
X0140820Y0186820D01*
X0140942Y0186696D01*
X0141061Y0186568D01*
X0141176Y0186438D01*
X0141288Y0186304D01*
X0141397Y0186168D01*
X0141503Y0186029D01*
X0141605Y0185888D01*
X0141703Y0185745D01*
X0141798Y0185598D01*
X0141890Y0185450D01*
X0141978Y0185300D01*
X0142062Y0185147D01*
X0142142Y0184992D01*
X0142218Y0184836D01*
X0142291Y0184677D01*
X0142360Y0184517D01*
X0142424Y0184355D01*
X0142485Y0184192D01*
X0142542Y0184027D01*
X0142594Y0183861D01*
X0142643Y0183694D01*
X0142687Y0183525D01*
X0142727Y0183356D01*
X0142764Y0183185D01*
X0142795Y0183014D01*
X0142823Y0182842D01*
X0142847Y0182669D01*
X0142866Y0182496D01*
X0142881Y0182322D01*
X0142891Y0182148D01*
X0142898Y0181974D01*
X0142900Y0181800D01*
X0142898Y0181626D01*
X0142891Y0181452D01*
X0142881Y0181278D01*
X0142866Y0181104D01*
X0142847Y0180931D01*
X0142823Y0180758D01*
X0142795Y0180586D01*
X0142764Y0180415D01*
X0142727Y0180244D01*
X0142687Y0180075D01*
X0142643Y0179906D01*
X0142594Y0179739D01*
X0142542Y0179573D01*
X0142485Y0179408D01*
X0142424Y0179245D01*
X0142360Y0179083D01*
X0142291Y0178923D01*
X0142218Y0178764D01*
X0142142Y0178608D01*
X0142062Y0178453D01*
X0141978Y0178300D01*
X0141890Y0178150D01*
X0141798Y0178002D01*
X0141703Y0177855D01*
X0141605Y0177712D01*
X0141503Y0177571D01*
X0141397Y0177432D01*
X0141288Y0177296D01*
X0141176Y0177162D01*
X0141061Y0177032D01*
X0140942Y0176904D01*
X0140820Y0176780D01*
X0140696Y0176658D01*
X0140568Y0176539D01*
X0140438Y0176424D01*
X0140304Y0176312D01*
X0140168Y0176203D01*
X0140029Y0176097D01*
X0139888Y0175995D01*
X0139745Y0175897D01*
X0139598Y0175802D01*
X0139450Y0175710D01*
X0139300Y0175622D01*
X0139147Y0175538D01*
X0138992Y0175458D01*
X0138836Y0175382D01*
X0138677Y0175309D01*
X0138517Y0175240D01*
X0138355Y0175176D01*
X0138192Y0175115D01*
X0138027Y0175058D01*
X0137861Y0175006D01*
X0137694Y0174957D01*
X0137525Y0174913D01*
X0137356Y0174873D01*
X0137185Y0174836D01*
X0137014Y0174805D01*
X0136842Y0174777D01*
X0136669Y0174753D01*
X0136496Y0174734D01*
X0136322Y0174719D01*
X0136148Y0174709D01*
X0135974Y0174702D01*
X0135800Y0174700D01*
X0135626Y0174702D01*
X0135452Y0174709D01*
X0135278Y0174719D01*
X0135104Y0174734D01*
X0134931Y0174753D01*
X0134758Y0174777D01*
X0134586Y0174805D01*
X0134415Y0174836D01*
X0134244Y0174873D01*
X0134075Y0174913D01*
X0133906Y0174957D01*
X0133739Y0175006D01*
X0133573Y0175058D01*
X0133408Y0175115D01*
X0133245Y0175176D01*
X0133083Y0175240D01*
X0132923Y0175309D01*
X0132764Y0175382D01*
X0132608Y0175458D01*
X0132453Y0175538D01*
X0132300Y0175622D01*
X0132150Y0175710D01*
X0132002Y0175802D01*
X0131855Y0175897D01*
X0131712Y0175995D01*
X0131571Y0176097D01*
X0131432Y0176203D01*
X0131296Y0176312D01*
X0131162Y0176424D01*
X0131032Y0176539D01*
X0130904Y0176658D01*
X0130780Y0176780D01*
X0130658Y0176904D01*
X0130539Y0177032D01*
X0130424Y0177162D01*
X0130312Y0177296D01*
X0130203Y0177432D01*
X0130097Y0177571D01*
X0129995Y0177712D01*
X0129897Y0177855D01*
X0129802Y0178002D01*
X0129710Y0178150D01*
X0129622Y0178300D01*
X0129538Y0178453D01*
X0129458Y0178608D01*
X0129382Y0178764D01*
X0129309Y0178923D01*
X0129240Y0179083D01*
X0129176Y0179245D01*
X0129115Y0179408D01*
X0129058Y0179573D01*
X0129006Y0179739D01*
X0128957Y0179906D01*
X0128913Y0180075D01*
X0128873Y0180244D01*
X0128836Y0180415D01*
X0128805Y0180586D01*
X0128777Y0180758D01*
X0128753Y0180931D01*
X0128734Y0181104D01*
X0128719Y0181278D01*
X0128709Y0181452D01*
X0128702Y0181626D01*
X0128700Y0181800D01*
X0184300Y0150300D02*
X0184300Y0143300D01*
X0184302Y0143240D01*
X0184307Y0143179D01*
X0184316Y0143120D01*
X0184329Y0143061D01*
X0184345Y0143002D01*
X0184365Y0142945D01*
X0184388Y0142890D01*
X0184415Y0142835D01*
X0184444Y0142783D01*
X0184477Y0142732D01*
X0184513Y0142683D01*
X0184551Y0142637D01*
X0184593Y0142593D01*
X0184637Y0142551D01*
X0184683Y0142513D01*
X0184732Y0142477D01*
X0184783Y0142444D01*
X0184835Y0142415D01*
X0184890Y0142388D01*
X0184945Y0142365D01*
X0185002Y0142345D01*
X0185061Y0142329D01*
X0185120Y0142316D01*
X0185179Y0142307D01*
X0185240Y0142302D01*
X0185300Y0142300D01*
X0186800Y0142300D01*
X0187300Y0142800D01*
X0206300Y0142800D01*
X0206800Y0142300D01*
X0208300Y0142300D01*
X0208360Y0142302D01*
X0208421Y0142307D01*
X0208480Y0142316D01*
X0208539Y0142329D01*
X0208598Y0142345D01*
X0208655Y0142365D01*
X0208710Y0142388D01*
X0208765Y0142415D01*
X0208817Y0142444D01*
X0208868Y0142477D01*
X0208917Y0142513D01*
X0208963Y0142551D01*
X0209007Y0142593D01*
X0209049Y0142637D01*
X0209087Y0142683D01*
X0209123Y0142732D01*
X0209156Y0142783D01*
X0209185Y0142835D01*
X0209212Y0142890D01*
X0209235Y0142945D01*
X0209255Y0143002D01*
X0209271Y0143061D01*
X0209284Y0143120D01*
X0209293Y0143179D01*
X0209298Y0143240D01*
X0209300Y0143300D01*
X0209300Y0150300D01*
X0209298Y0150360D01*
X0209293Y0150421D01*
X0209284Y0150480D01*
X0209271Y0150539D01*
X0209255Y0150598D01*
X0209235Y0150655D01*
X0209212Y0150710D01*
X0209185Y0150765D01*
X0209156Y0150817D01*
X0209123Y0150868D01*
X0209087Y0150917D01*
X0209049Y0150963D01*
X0209007Y0151007D01*
X0208963Y0151049D01*
X0208917Y0151087D01*
X0208868Y0151123D01*
X0208817Y0151156D01*
X0208765Y0151185D01*
X0208710Y0151212D01*
X0208655Y0151235D01*
X0208598Y0151255D01*
X0208539Y0151271D01*
X0208480Y0151284D01*
X0208421Y0151293D01*
X0208360Y0151298D01*
X0208300Y0151300D01*
X0206800Y0151300D01*
X0206300Y0150800D01*
X0187300Y0150800D01*
X0186800Y0151300D01*
X0185300Y0151300D01*
X0185240Y0151298D01*
X0185179Y0151293D01*
X0185120Y0151284D01*
X0185061Y0151271D01*
X0185002Y0151255D01*
X0184945Y0151235D01*
X0184890Y0151212D01*
X0184835Y0151185D01*
X0184783Y0151156D01*
X0184732Y0151123D01*
X0184683Y0151087D01*
X0184637Y0151049D01*
X0184593Y0151007D01*
X0184551Y0150963D01*
X0184513Y0150917D01*
X0184477Y0150868D01*
X0184444Y0150817D01*
X0184415Y0150765D01*
X0184388Y0150710D01*
X0184365Y0150655D01*
X0184345Y0150598D01*
X0184329Y0150539D01*
X0184316Y0150480D01*
X0184307Y0150421D01*
X0184302Y0150360D01*
X0184300Y0150300D01*
X0175300Y0114300D02*
X0168300Y0114300D01*
X0168240Y0114298D01*
X0168179Y0114293D01*
X0168120Y0114284D01*
X0168061Y0114271D01*
X0168002Y0114255D01*
X0167945Y0114235D01*
X0167890Y0114212D01*
X0167835Y0114185D01*
X0167783Y0114156D01*
X0167732Y0114123D01*
X0167683Y0114087D01*
X0167637Y0114049D01*
X0167593Y0114007D01*
X0167551Y0113963D01*
X0167513Y0113917D01*
X0167477Y0113868D01*
X0167444Y0113817D01*
X0167415Y0113765D01*
X0167388Y0113710D01*
X0167365Y0113655D01*
X0167345Y0113598D01*
X0167329Y0113539D01*
X0167316Y0113480D01*
X0167307Y0113421D01*
X0167302Y0113360D01*
X0167300Y0113300D01*
X0167300Y0111800D01*
X0167800Y0111300D01*
X0167800Y0092300D01*
X0167300Y0091800D01*
X0167300Y0090300D01*
X0167302Y0090240D01*
X0167307Y0090179D01*
X0167316Y0090120D01*
X0167329Y0090061D01*
X0167345Y0090002D01*
X0167365Y0089945D01*
X0167388Y0089890D01*
X0167415Y0089835D01*
X0167444Y0089783D01*
X0167477Y0089732D01*
X0167513Y0089683D01*
X0167551Y0089637D01*
X0167593Y0089593D01*
X0167637Y0089551D01*
X0167683Y0089513D01*
X0167732Y0089477D01*
X0167783Y0089444D01*
X0167835Y0089415D01*
X0167890Y0089388D01*
X0167945Y0089365D01*
X0168002Y0089345D01*
X0168061Y0089329D01*
X0168120Y0089316D01*
X0168179Y0089307D01*
X0168240Y0089302D01*
X0168300Y0089300D01*
X0175300Y0089300D01*
X0175360Y0089302D01*
X0175421Y0089307D01*
X0175480Y0089316D01*
X0175539Y0089329D01*
X0175598Y0089345D01*
X0175655Y0089365D01*
X0175710Y0089388D01*
X0175765Y0089415D01*
X0175817Y0089444D01*
X0175868Y0089477D01*
X0175917Y0089513D01*
X0175963Y0089551D01*
X0176007Y0089593D01*
X0176049Y0089637D01*
X0176087Y0089683D01*
X0176123Y0089732D01*
X0176156Y0089783D01*
X0176185Y0089835D01*
X0176212Y0089890D01*
X0176235Y0089945D01*
X0176255Y0090002D01*
X0176271Y0090061D01*
X0176284Y0090120D01*
X0176293Y0090179D01*
X0176298Y0090240D01*
X0176300Y0090300D01*
X0176300Y0091800D01*
X0175800Y0092300D01*
X0175800Y0111300D01*
X0176300Y0111800D01*
X0176300Y0113300D01*
X0176298Y0113360D01*
X0176293Y0113421D01*
X0176284Y0113480D01*
X0176271Y0113539D01*
X0176255Y0113598D01*
X0176235Y0113655D01*
X0176212Y0113710D01*
X0176185Y0113765D01*
X0176156Y0113817D01*
X0176123Y0113868D01*
X0176087Y0113917D01*
X0176049Y0113963D01*
X0176007Y0114007D01*
X0175963Y0114049D01*
X0175917Y0114087D01*
X0175868Y0114123D01*
X0175817Y0114156D01*
X0175765Y0114185D01*
X0175710Y0114212D01*
X0175655Y0114235D01*
X0175598Y0114255D01*
X0175539Y0114271D01*
X0175480Y0114284D01*
X0175421Y0114293D01*
X0175360Y0114298D01*
X0175300Y0114300D01*
X0175300Y0064300D02*
X0168300Y0064300D01*
X0168240Y0064298D01*
X0168179Y0064293D01*
X0168120Y0064284D01*
X0168061Y0064271D01*
X0168002Y0064255D01*
X0167945Y0064235D01*
X0167890Y0064212D01*
X0167835Y0064185D01*
X0167783Y0064156D01*
X0167732Y0064123D01*
X0167683Y0064087D01*
X0167637Y0064049D01*
X0167593Y0064007D01*
X0167551Y0063963D01*
X0167513Y0063917D01*
X0167477Y0063868D01*
X0167444Y0063817D01*
X0167415Y0063765D01*
X0167388Y0063710D01*
X0167365Y0063655D01*
X0167345Y0063598D01*
X0167329Y0063539D01*
X0167316Y0063480D01*
X0167307Y0063421D01*
X0167302Y0063360D01*
X0167300Y0063300D01*
X0167300Y0061800D01*
X0167800Y0061300D01*
X0167800Y0042300D01*
X0167300Y0041800D01*
X0167300Y0040300D01*
X0167302Y0040240D01*
X0167307Y0040179D01*
X0167316Y0040120D01*
X0167329Y0040061D01*
X0167345Y0040002D01*
X0167365Y0039945D01*
X0167388Y0039890D01*
X0167415Y0039835D01*
X0167444Y0039783D01*
X0167477Y0039732D01*
X0167513Y0039683D01*
X0167551Y0039637D01*
X0167593Y0039593D01*
X0167637Y0039551D01*
X0167683Y0039513D01*
X0167732Y0039477D01*
X0167783Y0039444D01*
X0167835Y0039415D01*
X0167890Y0039388D01*
X0167945Y0039365D01*
X0168002Y0039345D01*
X0168061Y0039329D01*
X0168120Y0039316D01*
X0168179Y0039307D01*
X0168240Y0039302D01*
X0168300Y0039300D01*
X0175300Y0039300D01*
X0175360Y0039302D01*
X0175421Y0039307D01*
X0175480Y0039316D01*
X0175539Y0039329D01*
X0175598Y0039345D01*
X0175655Y0039365D01*
X0175710Y0039388D01*
X0175765Y0039415D01*
X0175817Y0039444D01*
X0175868Y0039477D01*
X0175917Y0039513D01*
X0175963Y0039551D01*
X0176007Y0039593D01*
X0176049Y0039637D01*
X0176087Y0039683D01*
X0176123Y0039732D01*
X0176156Y0039783D01*
X0176185Y0039835D01*
X0176212Y0039890D01*
X0176235Y0039945D01*
X0176255Y0040002D01*
X0176271Y0040061D01*
X0176284Y0040120D01*
X0176293Y0040179D01*
X0176298Y0040240D01*
X0176300Y0040300D01*
X0176300Y0041800D01*
X0175800Y0042300D01*
X0175800Y0061300D01*
X0176300Y0061800D01*
X0176300Y0063300D01*
X0176298Y0063360D01*
X0176293Y0063421D01*
X0176284Y0063480D01*
X0176271Y0063539D01*
X0176255Y0063598D01*
X0176235Y0063655D01*
X0176212Y0063710D01*
X0176185Y0063765D01*
X0176156Y0063817D01*
X0176123Y0063868D01*
X0176087Y0063917D01*
X0176049Y0063963D01*
X0176007Y0064007D01*
X0175963Y0064049D01*
X0175917Y0064087D01*
X0175868Y0064123D01*
X0175817Y0064156D01*
X0175765Y0064185D01*
X0175710Y0064212D01*
X0175655Y0064235D01*
X0175598Y0064255D01*
X0175539Y0064271D01*
X0175480Y0064284D01*
X0175421Y0064293D01*
X0175360Y0064298D01*
X0175300Y0064300D01*
X0061300Y0157800D02*
X0061300Y0165800D01*
X0061298Y0165860D01*
X0061293Y0165921D01*
X0061284Y0165980D01*
X0061271Y0166039D01*
X0061255Y0166098D01*
X0061235Y0166155D01*
X0061212Y0166210D01*
X0061185Y0166265D01*
X0061156Y0166317D01*
X0061123Y0166368D01*
X0061087Y0166417D01*
X0061049Y0166463D01*
X0061007Y0166507D01*
X0060963Y0166549D01*
X0060917Y0166587D01*
X0060868Y0166623D01*
X0060817Y0166656D01*
X0060765Y0166685D01*
X0060710Y0166712D01*
X0060655Y0166735D01*
X0060598Y0166755D01*
X0060539Y0166771D01*
X0060480Y0166784D01*
X0060421Y0166793D01*
X0060360Y0166798D01*
X0060300Y0166800D01*
X0043300Y0166800D01*
X0043240Y0166798D01*
X0043179Y0166793D01*
X0043120Y0166784D01*
X0043061Y0166771D01*
X0043002Y0166755D01*
X0042945Y0166735D01*
X0042890Y0166712D01*
X0042835Y0166685D01*
X0042783Y0166656D01*
X0042732Y0166623D01*
X0042683Y0166587D01*
X0042637Y0166549D01*
X0042593Y0166507D01*
X0042551Y0166463D01*
X0042513Y0166417D01*
X0042477Y0166368D01*
X0042444Y0166317D01*
X0042415Y0166265D01*
X0042388Y0166210D01*
X0042365Y0166155D01*
X0042345Y0166098D01*
X0042329Y0166039D01*
X0042316Y0165980D01*
X0042307Y0165921D01*
X0042302Y0165860D01*
X0042300Y0165800D01*
X0042300Y0157800D01*
X0042302Y0157740D01*
X0042307Y0157679D01*
X0042316Y0157620D01*
X0042329Y0157561D01*
X0042345Y0157502D01*
X0042365Y0157445D01*
X0042388Y0157390D01*
X0042415Y0157335D01*
X0042444Y0157283D01*
X0042477Y0157232D01*
X0042513Y0157183D01*
X0042551Y0157137D01*
X0042593Y0157093D01*
X0042637Y0157051D01*
X0042683Y0157013D01*
X0042732Y0156977D01*
X0042783Y0156944D01*
X0042835Y0156915D01*
X0042890Y0156888D01*
X0042945Y0156865D01*
X0043002Y0156845D01*
X0043061Y0156829D01*
X0043120Y0156816D01*
X0043179Y0156807D01*
X0043240Y0156802D01*
X0043300Y0156800D01*
X0060300Y0156800D01*
X0060360Y0156802D01*
X0060421Y0156807D01*
X0060480Y0156816D01*
X0060539Y0156829D01*
X0060598Y0156845D01*
X0060655Y0156865D01*
X0060710Y0156888D01*
X0060765Y0156915D01*
X0060817Y0156944D01*
X0060868Y0156977D01*
X0060917Y0157013D01*
X0060963Y0157051D01*
X0061007Y0157093D01*
X0061049Y0157137D01*
X0061087Y0157183D01*
X0061123Y0157232D01*
X0061156Y0157283D01*
X0061185Y0157335D01*
X0061212Y0157390D01*
X0061235Y0157445D01*
X0061255Y0157502D01*
X0061271Y0157561D01*
X0061284Y0157620D01*
X0061293Y0157679D01*
X0061298Y0157740D01*
X0061300Y0157800D01*
X0053300Y0161800D02*
X0052800Y0161800D01*
X0050800Y0161800D02*
X0050300Y0161800D01*
X0036300Y0165800D02*
X0036300Y0157800D01*
X0036298Y0157740D01*
X0036293Y0157679D01*
X0036284Y0157620D01*
X0036271Y0157561D01*
X0036255Y0157502D01*
X0036235Y0157445D01*
X0036212Y0157390D01*
X0036185Y0157335D01*
X0036156Y0157283D01*
X0036123Y0157232D01*
X0036087Y0157183D01*
X0036049Y0157137D01*
X0036007Y0157093D01*
X0035963Y0157051D01*
X0035917Y0157013D01*
X0035868Y0156977D01*
X0035817Y0156944D01*
X0035765Y0156915D01*
X0035710Y0156888D01*
X0035655Y0156865D01*
X0035598Y0156845D01*
X0035539Y0156829D01*
X0035480Y0156816D01*
X0035421Y0156807D01*
X0035360Y0156802D01*
X0035300Y0156800D01*
X0018300Y0156800D01*
X0018240Y0156802D01*
X0018179Y0156807D01*
X0018120Y0156816D01*
X0018061Y0156829D01*
X0018002Y0156845D01*
X0017945Y0156865D01*
X0017890Y0156888D01*
X0017835Y0156915D01*
X0017783Y0156944D01*
X0017732Y0156977D01*
X0017683Y0157013D01*
X0017637Y0157051D01*
X0017593Y0157093D01*
X0017551Y0157137D01*
X0017513Y0157183D01*
X0017477Y0157232D01*
X0017444Y0157283D01*
X0017415Y0157335D01*
X0017388Y0157390D01*
X0017365Y0157445D01*
X0017345Y0157502D01*
X0017329Y0157561D01*
X0017316Y0157620D01*
X0017307Y0157679D01*
X0017302Y0157740D01*
X0017300Y0157800D01*
X0017300Y0165800D01*
X0017302Y0165860D01*
X0017307Y0165921D01*
X0017316Y0165980D01*
X0017329Y0166039D01*
X0017345Y0166098D01*
X0017365Y0166155D01*
X0017388Y0166210D01*
X0017415Y0166265D01*
X0017444Y0166317D01*
X0017477Y0166368D01*
X0017513Y0166417D01*
X0017551Y0166463D01*
X0017593Y0166507D01*
X0017637Y0166549D01*
X0017683Y0166587D01*
X0017732Y0166623D01*
X0017783Y0166656D01*
X0017835Y0166685D01*
X0017890Y0166712D01*
X0017945Y0166735D01*
X0018002Y0166755D01*
X0018061Y0166771D01*
X0018120Y0166784D01*
X0018179Y0166793D01*
X0018240Y0166798D01*
X0018300Y0166800D01*
X0035300Y0166800D01*
X0035360Y0166798D01*
X0035421Y0166793D01*
X0035480Y0166784D01*
X0035539Y0166771D01*
X0035598Y0166755D01*
X0035655Y0166735D01*
X0035710Y0166712D01*
X0035765Y0166685D01*
X0035817Y0166656D01*
X0035868Y0166623D01*
X0035917Y0166587D01*
X0035963Y0166549D01*
X0036007Y0166507D01*
X0036049Y0166463D01*
X0036087Y0166417D01*
X0036123Y0166368D01*
X0036156Y0166317D01*
X0036185Y0166265D01*
X0036212Y0166210D01*
X0036235Y0166155D01*
X0036255Y0166098D01*
X0036271Y0166039D01*
X0036284Y0165980D01*
X0036293Y0165921D01*
X0036298Y0165860D01*
X0036300Y0165800D01*
X0028300Y0161800D02*
X0027800Y0161800D01*
X0025800Y0161800D02*
X0025300Y0161800D01*
X0247300Y0170300D02*
X0247300Y0171800D01*
X0247800Y0172300D01*
X0247800Y0191300D01*
X0247300Y0191800D01*
X0247300Y0193300D01*
X0247302Y0193360D01*
X0247307Y0193421D01*
X0247316Y0193480D01*
X0247329Y0193539D01*
X0247345Y0193598D01*
X0247365Y0193655D01*
X0247388Y0193710D01*
X0247415Y0193765D01*
X0247444Y0193817D01*
X0247477Y0193868D01*
X0247513Y0193917D01*
X0247551Y0193963D01*
X0247593Y0194007D01*
X0247637Y0194049D01*
X0247683Y0194087D01*
X0247732Y0194123D01*
X0247783Y0194156D01*
X0247835Y0194185D01*
X0247890Y0194212D01*
X0247945Y0194235D01*
X0248002Y0194255D01*
X0248061Y0194271D01*
X0248120Y0194284D01*
X0248179Y0194293D01*
X0248240Y0194298D01*
X0248300Y0194300D01*
X0255300Y0194300D01*
X0255360Y0194298D01*
X0255421Y0194293D01*
X0255480Y0194284D01*
X0255539Y0194271D01*
X0255598Y0194255D01*
X0255655Y0194235D01*
X0255710Y0194212D01*
X0255765Y0194185D01*
X0255817Y0194156D01*
X0255868Y0194123D01*
X0255917Y0194087D01*
X0255963Y0194049D01*
X0256007Y0194007D01*
X0256049Y0193963D01*
X0256087Y0193917D01*
X0256123Y0193868D01*
X0256156Y0193817D01*
X0256185Y0193765D01*
X0256212Y0193710D01*
X0256235Y0193655D01*
X0256255Y0193598D01*
X0256271Y0193539D01*
X0256284Y0193480D01*
X0256293Y0193421D01*
X0256298Y0193360D01*
X0256300Y0193300D01*
X0256300Y0191800D01*
X0255800Y0191300D01*
X0255800Y0172300D01*
X0256300Y0171800D01*
X0256300Y0170300D01*
X0256298Y0170240D01*
X0256293Y0170179D01*
X0256284Y0170120D01*
X0256271Y0170061D01*
X0256255Y0170002D01*
X0256235Y0169945D01*
X0256212Y0169890D01*
X0256185Y0169835D01*
X0256156Y0169783D01*
X0256123Y0169732D01*
X0256087Y0169683D01*
X0256049Y0169637D01*
X0256007Y0169593D01*
X0255963Y0169551D01*
X0255917Y0169513D01*
X0255868Y0169477D01*
X0255817Y0169444D01*
X0255765Y0169415D01*
X0255710Y0169388D01*
X0255655Y0169365D01*
X0255598Y0169345D01*
X0255539Y0169329D01*
X0255480Y0169316D01*
X0255421Y0169307D01*
X0255360Y0169302D01*
X0255300Y0169300D01*
X0248300Y0169300D01*
X0248240Y0169302D01*
X0248179Y0169307D01*
X0248120Y0169316D01*
X0248061Y0169329D01*
X0248002Y0169345D01*
X0247945Y0169365D01*
X0247890Y0169388D01*
X0247835Y0169415D01*
X0247783Y0169444D01*
X0247732Y0169477D01*
X0247683Y0169513D01*
X0247637Y0169551D01*
X0247593Y0169593D01*
X0247551Y0169637D01*
X0247513Y0169683D01*
X0247477Y0169732D01*
X0247444Y0169783D01*
X0247415Y0169835D01*
X0247388Y0169890D01*
X0247365Y0169945D01*
X0247345Y0170002D01*
X0247329Y0170061D01*
X0247316Y0170120D01*
X0247307Y0170179D01*
X0247302Y0170240D01*
X0247300Y0170300D01*
D14*
X0052800Y0164800D02*
X0052800Y0161800D01*
X0052800Y0158800D01*
X0050800Y0158800D02*
X0050800Y0161800D01*
X0050800Y0164800D01*
X0027800Y0164800D02*
X0027800Y0161800D01*
X0027800Y0158800D01*
X0025800Y0158800D02*
X0025800Y0161800D01*
X0025800Y0164800D01*
D15*
X0089300Y0163800D02*
X0121800Y0163800D01*
X0121800Y0199800D01*
X0089300Y0199800D01*
X0089300Y0163800D01*
D16*
X0089096Y0203650D02*
X0084892Y0203650D01*
X0086994Y0203650D02*
X0086994Y0209955D01*
X0084892Y0207854D01*
X0082651Y0208904D02*
X0081600Y0209955D01*
X0079498Y0209955D01*
X0078447Y0208904D01*
X0078447Y0204701D01*
X0079498Y0203650D01*
X0081600Y0203650D01*
X0082651Y0204701D01*
X0076252Y0203650D02*
X0074150Y0203650D01*
X0075201Y0203650D02*
X0075201Y0209955D01*
X0074150Y0209955D02*
X0076252Y0209955D01*
D17*
X0074550Y0191800D03*
X0074550Y0181800D03*
X0074550Y0171800D03*
D18*
X0081300Y0171800D03*
X0081300Y0181800D03*
X0081300Y0191800D03*
D19*
X0171800Y0116000D03*
X0171800Y0087600D03*
X0171800Y0066000D03*
X0171800Y0037600D03*
X0251800Y0167600D03*
X0251800Y0196000D03*
D20*
X0211000Y0146800D03*
X0182600Y0146800D03*
D21*
X0252106Y0127210D02*
X0252513Y0127401D01*
X0252512Y0127401D02*
X0252613Y0127195D01*
X0252717Y0126992D01*
X0252827Y0126791D01*
X0252941Y0126592D01*
X0253059Y0126396D01*
X0253181Y0126203D01*
X0253308Y0126013D01*
X0253439Y0125825D01*
X0253574Y0125640D01*
X0253713Y0125459D01*
X0253360Y0125181D01*
X0253360Y0125180D01*
X0253214Y0125370D01*
X0253073Y0125563D01*
X0252936Y0125759D01*
X0252804Y0125958D01*
X0252676Y0126160D01*
X0252553Y0126364D01*
X0252434Y0126572D01*
X0252319Y0126782D01*
X0252210Y0126994D01*
X0252105Y0127209D01*
X0252148Y0127229D01*
X0252252Y0127015D01*
X0252361Y0126804D01*
X0252475Y0126595D01*
X0252593Y0126388D01*
X0252716Y0126184D01*
X0252843Y0125983D01*
X0252975Y0125785D01*
X0253111Y0125590D01*
X0253252Y0125398D01*
X0253397Y0125209D01*
X0253434Y0125238D01*
X0253290Y0125426D01*
X0253150Y0125617D01*
X0253014Y0125812D01*
X0252883Y0126009D01*
X0252756Y0126209D01*
X0252634Y0126412D01*
X0252516Y0126617D01*
X0252403Y0126826D01*
X0252294Y0127036D01*
X0252190Y0127249D01*
X0252233Y0127269D01*
X0252336Y0127057D01*
X0252444Y0126848D01*
X0252557Y0126640D01*
X0252674Y0126436D01*
X0252796Y0126234D01*
X0252922Y0126035D01*
X0253053Y0125838D01*
X0253188Y0125645D01*
X0253327Y0125455D01*
X0253471Y0125267D01*
X0253508Y0125296D01*
X0253365Y0125483D01*
X0253226Y0125672D01*
X0253092Y0125865D01*
X0252962Y0126060D01*
X0252836Y0126258D01*
X0252715Y0126460D01*
X0252598Y0126663D01*
X0252486Y0126869D01*
X0252378Y0127078D01*
X0252275Y0127289D01*
X0252318Y0127309D01*
X0252420Y0127099D01*
X0252527Y0126891D01*
X0252639Y0126686D01*
X0252755Y0126483D01*
X0252876Y0126283D01*
X0253001Y0126086D01*
X0253130Y0125891D01*
X0253264Y0125700D01*
X0253402Y0125511D01*
X0253544Y0125326D01*
X0253581Y0125355D01*
X0253440Y0125539D01*
X0253302Y0125727D01*
X0253169Y0125918D01*
X0253040Y0126111D01*
X0252916Y0126308D01*
X0252796Y0126507D01*
X0252680Y0126709D01*
X0252569Y0126913D01*
X0252462Y0127120D01*
X0252360Y0127329D01*
X0252403Y0127349D01*
X0252504Y0127141D01*
X0252610Y0126935D01*
X0252721Y0126732D01*
X0252836Y0126531D01*
X0252956Y0126333D01*
X0253080Y0126137D01*
X0253208Y0125944D01*
X0253341Y0125754D01*
X0253477Y0125567D01*
X0253618Y0125384D01*
X0253655Y0125413D01*
X0253515Y0125596D01*
X0253379Y0125782D01*
X0253247Y0125971D01*
X0253119Y0126163D01*
X0252996Y0126357D01*
X0252877Y0126555D01*
X0252762Y0126755D01*
X0252652Y0126957D01*
X0252546Y0127162D01*
X0252445Y0127369D01*
X0252488Y0127389D01*
X0252588Y0127183D01*
X0252694Y0126979D01*
X0252803Y0126778D01*
X0252917Y0126579D01*
X0253036Y0126382D01*
X0253159Y0126188D01*
X0253286Y0125997D01*
X0253417Y0125809D01*
X0253553Y0125624D01*
X0253692Y0125442D01*
X0271492Y0136390D02*
X0271085Y0136198D01*
X0271086Y0136199D02*
X0270975Y0136425D01*
X0270859Y0136649D01*
X0270737Y0136870D01*
X0270610Y0137087D01*
X0270478Y0137302D01*
X0270340Y0137513D01*
X0270198Y0137721D01*
X0270050Y0137925D01*
X0269897Y0138126D01*
X0269740Y0138322D01*
X0269577Y0138515D01*
X0269410Y0138704D01*
X0269239Y0138888D01*
X0269062Y0139069D01*
X0268882Y0139245D01*
X0268697Y0139416D01*
X0268508Y0139583D01*
X0268315Y0139745D01*
X0268119Y0139903D01*
X0267918Y0140055D01*
X0267714Y0140203D01*
X0267506Y0140345D01*
X0267294Y0140483D01*
X0267080Y0140615D01*
X0266862Y0140742D01*
X0266641Y0140863D01*
X0266417Y0140979D01*
X0266191Y0141090D01*
X0265962Y0141194D01*
X0265730Y0141294D01*
X0265496Y0141387D01*
X0265260Y0141475D01*
X0265021Y0141557D01*
X0264781Y0141633D01*
X0264539Y0141703D01*
X0264295Y0141767D01*
X0264050Y0141826D01*
X0263803Y0141878D01*
X0263556Y0141924D01*
X0263307Y0141964D01*
X0263057Y0141998D01*
X0262807Y0142026D01*
X0262555Y0142047D01*
X0262304Y0142063D01*
X0262052Y0142072D01*
X0261800Y0142075D01*
X0261548Y0142072D01*
X0261296Y0142063D01*
X0261045Y0142047D01*
X0260793Y0142026D01*
X0260543Y0141998D01*
X0260293Y0141964D01*
X0260044Y0141924D01*
X0259797Y0141878D01*
X0259550Y0141826D01*
X0259305Y0141767D01*
X0259061Y0141703D01*
X0258819Y0141633D01*
X0258579Y0141557D01*
X0258340Y0141475D01*
X0258104Y0141387D01*
X0257870Y0141294D01*
X0257638Y0141194D01*
X0257409Y0141090D01*
X0257183Y0140979D01*
X0256959Y0140863D01*
X0256738Y0140742D01*
X0256520Y0140615D01*
X0256306Y0140483D01*
X0256094Y0140345D01*
X0255886Y0140203D01*
X0255682Y0140055D01*
X0255481Y0139903D01*
X0255285Y0139745D01*
X0255092Y0139583D01*
X0254903Y0139416D01*
X0254718Y0139245D01*
X0254538Y0139069D01*
X0254361Y0138888D01*
X0254190Y0138704D01*
X0254023Y0138515D01*
X0253860Y0138322D01*
X0253703Y0138126D01*
X0253550Y0137925D01*
X0253402Y0137721D01*
X0253260Y0137513D01*
X0253122Y0137302D01*
X0252990Y0137087D01*
X0252863Y0136870D01*
X0252741Y0136649D01*
X0252625Y0136425D01*
X0252514Y0136199D01*
X0252108Y0136390D01*
X0252107Y0136390D01*
X0252223Y0136627D01*
X0252344Y0136860D01*
X0252471Y0137091D01*
X0252603Y0137318D01*
X0252742Y0137542D01*
X0252885Y0137762D01*
X0253034Y0137979D01*
X0253188Y0138193D01*
X0253348Y0138402D01*
X0253512Y0138607D01*
X0253682Y0138808D01*
X0253856Y0139005D01*
X0254035Y0139198D01*
X0254219Y0139386D01*
X0254407Y0139570D01*
X0254600Y0139749D01*
X0254797Y0139923D01*
X0254999Y0140093D01*
X0255204Y0140257D01*
X0255414Y0140416D01*
X0255627Y0140570D01*
X0255844Y0140719D01*
X0256064Y0140863D01*
X0256289Y0141000D01*
X0256516Y0141133D01*
X0256746Y0141260D01*
X0256980Y0141381D01*
X0257216Y0141496D01*
X0257456Y0141606D01*
X0257697Y0141709D01*
X0257942Y0141807D01*
X0258188Y0141899D01*
X0258437Y0141984D01*
X0258688Y0142064D01*
X0258941Y0142137D01*
X0259195Y0142204D01*
X0259451Y0142265D01*
X0259709Y0142319D01*
X0259967Y0142367D01*
X0260227Y0142409D01*
X0260488Y0142444D01*
X0260749Y0142473D01*
X0261011Y0142496D01*
X0261274Y0142512D01*
X0261537Y0142522D01*
X0261800Y0142525D01*
X0262063Y0142522D01*
X0262326Y0142512D01*
X0262589Y0142496D01*
X0262851Y0142473D01*
X0263112Y0142444D01*
X0263373Y0142409D01*
X0263633Y0142367D01*
X0263891Y0142319D01*
X0264149Y0142265D01*
X0264405Y0142204D01*
X0264659Y0142137D01*
X0264912Y0142064D01*
X0265163Y0141984D01*
X0265412Y0141899D01*
X0265658Y0141807D01*
X0265903Y0141709D01*
X0266144Y0141606D01*
X0266384Y0141496D01*
X0266620Y0141381D01*
X0266854Y0141260D01*
X0267084Y0141133D01*
X0267311Y0141000D01*
X0267536Y0140863D01*
X0267756Y0140719D01*
X0267973Y0140570D01*
X0268186Y0140416D01*
X0268396Y0140257D01*
X0268601Y0140093D01*
X0268803Y0139923D01*
X0269000Y0139749D01*
X0269193Y0139570D01*
X0269381Y0139386D01*
X0269565Y0139198D01*
X0269744Y0139005D01*
X0269918Y0138808D01*
X0270088Y0138607D01*
X0270252Y0138402D01*
X0270412Y0138193D01*
X0270566Y0137979D01*
X0270715Y0137762D01*
X0270858Y0137542D01*
X0270997Y0137318D01*
X0271129Y0137091D01*
X0271256Y0136860D01*
X0271377Y0136627D01*
X0271493Y0136390D01*
X0271450Y0136370D01*
X0271335Y0136606D01*
X0271215Y0136838D01*
X0271088Y0137068D01*
X0270956Y0137294D01*
X0270819Y0137517D01*
X0270676Y0137736D01*
X0270527Y0137952D01*
X0270374Y0138165D01*
X0270215Y0138373D01*
X0270051Y0138577D01*
X0269883Y0138778D01*
X0269709Y0138974D01*
X0269531Y0139166D01*
X0269348Y0139353D01*
X0269160Y0139536D01*
X0268968Y0139714D01*
X0268772Y0139888D01*
X0268571Y0140056D01*
X0268367Y0140220D01*
X0268158Y0140379D01*
X0267946Y0140532D01*
X0267730Y0140680D01*
X0267510Y0140823D01*
X0267287Y0140960D01*
X0267061Y0141092D01*
X0266831Y0141218D01*
X0266599Y0141339D01*
X0266363Y0141454D01*
X0266125Y0141563D01*
X0265884Y0141666D01*
X0265641Y0141763D01*
X0265396Y0141854D01*
X0265148Y0141940D01*
X0264898Y0142019D01*
X0264647Y0142092D01*
X0264393Y0142158D01*
X0264138Y0142219D01*
X0263882Y0142273D01*
X0263625Y0142321D01*
X0263366Y0142363D01*
X0263106Y0142398D01*
X0262846Y0142427D01*
X0262585Y0142449D01*
X0262324Y0142465D01*
X0262062Y0142475D01*
X0261800Y0142478D01*
X0261538Y0142475D01*
X0261276Y0142465D01*
X0261015Y0142449D01*
X0260754Y0142427D01*
X0260494Y0142398D01*
X0260234Y0142363D01*
X0259975Y0142321D01*
X0259718Y0142273D01*
X0259462Y0142219D01*
X0259207Y0142158D01*
X0258953Y0142092D01*
X0258702Y0142019D01*
X0258452Y0141940D01*
X0258204Y0141854D01*
X0257959Y0141763D01*
X0257716Y0141666D01*
X0257475Y0141563D01*
X0257237Y0141454D01*
X0257001Y0141339D01*
X0256769Y0141218D01*
X0256539Y0141092D01*
X0256313Y0140960D01*
X0256090Y0140823D01*
X0255870Y0140680D01*
X0255654Y0140532D01*
X0255442Y0140379D01*
X0255233Y0140220D01*
X0255029Y0140056D01*
X0254828Y0139888D01*
X0254632Y0139714D01*
X0254440Y0139536D01*
X0254252Y0139353D01*
X0254069Y0139166D01*
X0253891Y0138974D01*
X0253717Y0138778D01*
X0253549Y0138577D01*
X0253385Y0138373D01*
X0253226Y0138165D01*
X0253073Y0137952D01*
X0252924Y0137736D01*
X0252781Y0137517D01*
X0252644Y0137294D01*
X0252512Y0137068D01*
X0252385Y0136838D01*
X0252265Y0136606D01*
X0252150Y0136370D01*
X0252192Y0136350D01*
X0252307Y0136585D01*
X0252427Y0136816D01*
X0252553Y0137045D01*
X0252684Y0137270D01*
X0252821Y0137492D01*
X0252963Y0137710D01*
X0253111Y0137925D01*
X0253264Y0138137D01*
X0253422Y0138344D01*
X0253585Y0138548D01*
X0253753Y0138747D01*
X0253926Y0138942D01*
X0254103Y0139133D01*
X0254286Y0139320D01*
X0254472Y0139502D01*
X0254663Y0139680D01*
X0254859Y0139852D01*
X0255058Y0140020D01*
X0255262Y0140183D01*
X0255470Y0140341D01*
X0255681Y0140494D01*
X0255896Y0140641D01*
X0256115Y0140783D01*
X0256337Y0140920D01*
X0256562Y0141051D01*
X0256791Y0141177D01*
X0257022Y0141297D01*
X0257257Y0141411D01*
X0257494Y0141520D01*
X0257734Y0141623D01*
X0257976Y0141719D01*
X0258220Y0141810D01*
X0258467Y0141895D01*
X0258715Y0141974D01*
X0258966Y0142046D01*
X0259218Y0142113D01*
X0259472Y0142173D01*
X0259727Y0142227D01*
X0259983Y0142275D01*
X0260241Y0142316D01*
X0260499Y0142351D01*
X0260758Y0142380D01*
X0261018Y0142402D01*
X0261279Y0142418D01*
X0261539Y0142428D01*
X0261800Y0142431D01*
X0262061Y0142428D01*
X0262321Y0142418D01*
X0262582Y0142402D01*
X0262842Y0142380D01*
X0263101Y0142351D01*
X0263359Y0142316D01*
X0263617Y0142275D01*
X0263873Y0142227D01*
X0264128Y0142173D01*
X0264382Y0142113D01*
X0264634Y0142046D01*
X0264885Y0141974D01*
X0265133Y0141895D01*
X0265380Y0141810D01*
X0265624Y0141719D01*
X0265866Y0141623D01*
X0266106Y0141520D01*
X0266343Y0141411D01*
X0266578Y0141297D01*
X0266809Y0141177D01*
X0267038Y0141051D01*
X0267263Y0140920D01*
X0267485Y0140783D01*
X0267704Y0140641D01*
X0267919Y0140494D01*
X0268130Y0140341D01*
X0268338Y0140183D01*
X0268542Y0140020D01*
X0268741Y0139852D01*
X0268937Y0139680D01*
X0269128Y0139502D01*
X0269314Y0139320D01*
X0269497Y0139133D01*
X0269674Y0138942D01*
X0269847Y0138747D01*
X0270015Y0138548D01*
X0270178Y0138344D01*
X0270336Y0138137D01*
X0270489Y0137925D01*
X0270637Y0137710D01*
X0270779Y0137492D01*
X0270916Y0137270D01*
X0271047Y0137045D01*
X0271173Y0136816D01*
X0271293Y0136585D01*
X0271408Y0136350D01*
X0271365Y0136330D01*
X0271251Y0136564D01*
X0271132Y0136794D01*
X0271006Y0137022D01*
X0270875Y0137246D01*
X0270739Y0137467D01*
X0270597Y0137684D01*
X0270451Y0137898D01*
X0270298Y0138109D01*
X0270141Y0138315D01*
X0269979Y0138518D01*
X0269811Y0138716D01*
X0269639Y0138911D01*
X0269463Y0139101D01*
X0269281Y0139287D01*
X0269095Y0139468D01*
X0268905Y0139645D01*
X0268710Y0139817D01*
X0268512Y0139984D01*
X0268309Y0140146D01*
X0268102Y0140303D01*
X0267892Y0140455D01*
X0267678Y0140602D01*
X0267460Y0140743D01*
X0267239Y0140880D01*
X0267015Y0141010D01*
X0266787Y0141135D01*
X0266557Y0141255D01*
X0266323Y0141369D01*
X0266087Y0141477D01*
X0265848Y0141579D01*
X0265607Y0141675D01*
X0265364Y0141766D01*
X0265118Y0141850D01*
X0264871Y0141929D01*
X0264622Y0142001D01*
X0264370Y0142067D01*
X0264118Y0142127D01*
X0263864Y0142181D01*
X0263609Y0142228D01*
X0263352Y0142270D01*
X0263095Y0142304D01*
X0262837Y0142333D01*
X0262578Y0142355D01*
X0262319Y0142371D01*
X0262060Y0142381D01*
X0261800Y0142384D01*
X0261540Y0142381D01*
X0261281Y0142371D01*
X0261022Y0142355D01*
X0260763Y0142333D01*
X0260505Y0142304D01*
X0260248Y0142270D01*
X0259991Y0142228D01*
X0259736Y0142181D01*
X0259482Y0142127D01*
X0259230Y0142067D01*
X0258978Y0142001D01*
X0258729Y0141929D01*
X0258482Y0141850D01*
X0258236Y0141766D01*
X0257993Y0141675D01*
X0257752Y0141579D01*
X0257513Y0141477D01*
X0257277Y0141369D01*
X0257043Y0141255D01*
X0256813Y0141135D01*
X0256585Y0141010D01*
X0256361Y0140880D01*
X0256140Y0140743D01*
X0255922Y0140602D01*
X0255708Y0140455D01*
X0255498Y0140303D01*
X0255291Y0140146D01*
X0255088Y0139984D01*
X0254890Y0139817D01*
X0254695Y0139645D01*
X0254505Y0139468D01*
X0254319Y0139287D01*
X0254137Y0139101D01*
X0253961Y0138911D01*
X0253789Y0138716D01*
X0253621Y0138518D01*
X0253459Y0138315D01*
X0253302Y0138109D01*
X0253149Y0137898D01*
X0253003Y0137684D01*
X0252861Y0137467D01*
X0252725Y0137246D01*
X0252594Y0137022D01*
X0252468Y0136794D01*
X0252349Y0136564D01*
X0252235Y0136330D01*
X0252277Y0136310D01*
X0252391Y0136543D01*
X0252510Y0136772D01*
X0252635Y0136998D01*
X0252765Y0137222D01*
X0252901Y0137442D01*
X0253042Y0137658D01*
X0253188Y0137871D01*
X0253339Y0138081D01*
X0253496Y0138286D01*
X0253658Y0138488D01*
X0253824Y0138686D01*
X0253995Y0138879D01*
X0254171Y0139069D01*
X0254352Y0139254D01*
X0254537Y0139434D01*
X0254727Y0139610D01*
X0254920Y0139781D01*
X0255118Y0139947D01*
X0255320Y0140109D01*
X0255526Y0140265D01*
X0255735Y0140417D01*
X0255948Y0140563D01*
X0256165Y0140704D01*
X0256385Y0140839D01*
X0256609Y0140969D01*
X0256835Y0141094D01*
X0257065Y0141213D01*
X0257297Y0141326D01*
X0257532Y0141434D01*
X0257770Y0141536D01*
X0258010Y0141632D01*
X0258252Y0141722D01*
X0258496Y0141806D01*
X0258743Y0141884D01*
X0258991Y0141956D01*
X0259241Y0142022D01*
X0259492Y0142081D01*
X0259745Y0142135D01*
X0259999Y0142182D01*
X0260255Y0142223D01*
X0260511Y0142258D01*
X0260768Y0142286D01*
X0261025Y0142308D01*
X0261283Y0142324D01*
X0261542Y0142334D01*
X0261800Y0142337D01*
X0262058Y0142334D01*
X0262317Y0142324D01*
X0262575Y0142308D01*
X0262832Y0142286D01*
X0263089Y0142258D01*
X0263345Y0142223D01*
X0263601Y0142182D01*
X0263855Y0142135D01*
X0264108Y0142081D01*
X0264359Y0142022D01*
X0264609Y0141956D01*
X0264857Y0141884D01*
X0265104Y0141806D01*
X0265348Y0141722D01*
X0265590Y0141632D01*
X0265830Y0141536D01*
X0266068Y0141434D01*
X0266303Y0141326D01*
X0266535Y0141213D01*
X0266765Y0141094D01*
X0266991Y0140969D01*
X0267215Y0140839D01*
X0267435Y0140704D01*
X0267652Y0140563D01*
X0267865Y0140417D01*
X0268074Y0140265D01*
X0268280Y0140109D01*
X0268482Y0139947D01*
X0268680Y0139781D01*
X0268873Y0139610D01*
X0269063Y0139434D01*
X0269248Y0139254D01*
X0269429Y0139069D01*
X0269605Y0138879D01*
X0269776Y0138686D01*
X0269942Y0138488D01*
X0270104Y0138286D01*
X0270261Y0138081D01*
X0270412Y0137871D01*
X0270558Y0137658D01*
X0270699Y0137442D01*
X0270835Y0137222D01*
X0270965Y0136998D01*
X0271090Y0136772D01*
X0271209Y0136543D01*
X0271323Y0136310D01*
X0271280Y0136290D01*
X0271167Y0136522D01*
X0271049Y0136750D01*
X0270924Y0136975D01*
X0270795Y0137198D01*
X0270660Y0137417D01*
X0270519Y0137632D01*
X0270374Y0137844D01*
X0270223Y0138053D01*
X0270067Y0138258D01*
X0269906Y0138458D01*
X0269740Y0138655D01*
X0269570Y0138848D01*
X0269394Y0139036D01*
X0269215Y0139220D01*
X0269030Y0139400D01*
X0268842Y0139575D01*
X0268649Y0139746D01*
X0268452Y0139911D01*
X0268251Y0140072D01*
X0268046Y0140228D01*
X0267838Y0140378D01*
X0267625Y0140524D01*
X0267410Y0140664D01*
X0267191Y0140799D01*
X0266968Y0140929D01*
X0266743Y0141053D01*
X0266514Y0141171D01*
X0266283Y0141284D01*
X0266049Y0141391D01*
X0265812Y0141492D01*
X0265573Y0141588D01*
X0265332Y0141677D01*
X0265089Y0141761D01*
X0264844Y0141839D01*
X0264596Y0141910D01*
X0264348Y0141976D01*
X0264097Y0142035D01*
X0263845Y0142089D01*
X0263593Y0142136D01*
X0263338Y0142177D01*
X0263083Y0142211D01*
X0262828Y0142240D01*
X0262571Y0142262D01*
X0262314Y0142277D01*
X0262057Y0142287D01*
X0261800Y0142290D01*
X0261543Y0142287D01*
X0261286Y0142277D01*
X0261029Y0142262D01*
X0260772Y0142240D01*
X0260517Y0142211D01*
X0260262Y0142177D01*
X0260007Y0142136D01*
X0259755Y0142089D01*
X0259503Y0142035D01*
X0259252Y0141976D01*
X0259004Y0141910D01*
X0258756Y0141839D01*
X0258511Y0141761D01*
X0258268Y0141677D01*
X0258027Y0141588D01*
X0257788Y0141492D01*
X0257551Y0141391D01*
X0257317Y0141284D01*
X0257086Y0141171D01*
X0256857Y0141053D01*
X0256632Y0140929D01*
X0256409Y0140799D01*
X0256190Y0140664D01*
X0255975Y0140524D01*
X0255762Y0140378D01*
X0255554Y0140228D01*
X0255349Y0140072D01*
X0255148Y0139911D01*
X0254951Y0139746D01*
X0254758Y0139575D01*
X0254570Y0139400D01*
X0254385Y0139220D01*
X0254206Y0139036D01*
X0254030Y0138848D01*
X0253860Y0138655D01*
X0253694Y0138458D01*
X0253533Y0138258D01*
X0253377Y0138053D01*
X0253226Y0137844D01*
X0253081Y0137632D01*
X0252940Y0137417D01*
X0252805Y0137198D01*
X0252676Y0136975D01*
X0252551Y0136750D01*
X0252433Y0136522D01*
X0252320Y0136290D01*
X0252362Y0136270D01*
X0252475Y0136501D01*
X0252593Y0136728D01*
X0252716Y0136952D01*
X0252846Y0137173D01*
X0252980Y0137392D01*
X0253120Y0137606D01*
X0253265Y0137817D01*
X0253415Y0138025D01*
X0253570Y0138229D01*
X0253730Y0138429D01*
X0253895Y0138625D01*
X0254065Y0138816D01*
X0254240Y0139004D01*
X0254419Y0139187D01*
X0254602Y0139366D01*
X0254790Y0139540D01*
X0254982Y0139710D01*
X0255178Y0139875D01*
X0255378Y0140035D01*
X0255582Y0140190D01*
X0255790Y0140340D01*
X0256001Y0140485D01*
X0256216Y0140624D01*
X0256434Y0140759D01*
X0256655Y0140888D01*
X0256880Y0141011D01*
X0257107Y0141129D01*
X0257337Y0141241D01*
X0257570Y0141348D01*
X0257806Y0141449D01*
X0258043Y0141544D01*
X0258284Y0141633D01*
X0258526Y0141716D01*
X0258770Y0141794D01*
X0259016Y0141865D01*
X0259264Y0141930D01*
X0259513Y0141990D01*
X0259764Y0142043D01*
X0260016Y0142089D01*
X0260268Y0142130D01*
X0260522Y0142165D01*
X0260777Y0142193D01*
X0261032Y0142215D01*
X0261288Y0142230D01*
X0261544Y0142240D01*
X0261800Y0142243D01*
X0262056Y0142240D01*
X0262312Y0142230D01*
X0262568Y0142215D01*
X0262823Y0142193D01*
X0263078Y0142165D01*
X0263332Y0142130D01*
X0263584Y0142089D01*
X0263836Y0142043D01*
X0264087Y0141990D01*
X0264336Y0141930D01*
X0264584Y0141865D01*
X0264830Y0141794D01*
X0265074Y0141716D01*
X0265316Y0141633D01*
X0265557Y0141544D01*
X0265794Y0141449D01*
X0266030Y0141348D01*
X0266263Y0141241D01*
X0266493Y0141129D01*
X0266720Y0141011D01*
X0266945Y0140888D01*
X0267166Y0140759D01*
X0267384Y0140624D01*
X0267599Y0140485D01*
X0267810Y0140340D01*
X0268018Y0140190D01*
X0268222Y0140035D01*
X0268422Y0139875D01*
X0268618Y0139710D01*
X0268810Y0139540D01*
X0268998Y0139366D01*
X0269181Y0139187D01*
X0269360Y0139004D01*
X0269535Y0138816D01*
X0269705Y0138625D01*
X0269870Y0138429D01*
X0270030Y0138229D01*
X0270185Y0138025D01*
X0270335Y0137817D01*
X0270480Y0137606D01*
X0270620Y0137392D01*
X0270754Y0137173D01*
X0270884Y0136952D01*
X0271007Y0136728D01*
X0271125Y0136501D01*
X0271238Y0136270D01*
X0271195Y0136250D01*
X0271083Y0136479D01*
X0270966Y0136706D01*
X0270843Y0136929D01*
X0270714Y0137149D01*
X0270580Y0137366D01*
X0270441Y0137580D01*
X0270297Y0137790D01*
X0270147Y0137997D01*
X0269993Y0138200D01*
X0269833Y0138399D01*
X0269669Y0138594D01*
X0269500Y0138785D01*
X0269326Y0138972D01*
X0269148Y0139154D01*
X0268965Y0139332D01*
X0268779Y0139506D01*
X0268587Y0139674D01*
X0268392Y0139839D01*
X0268193Y0139998D01*
X0267990Y0140152D01*
X0267783Y0140302D01*
X0267573Y0140446D01*
X0267359Y0140585D01*
X0267142Y0140718D01*
X0266922Y0140847D01*
X0266698Y0140970D01*
X0266472Y0141087D01*
X0266243Y0141199D01*
X0266011Y0141305D01*
X0265776Y0141405D01*
X0265540Y0141500D01*
X0265301Y0141589D01*
X0265059Y0141672D01*
X0264816Y0141749D01*
X0264571Y0141820D01*
X0264325Y0141885D01*
X0264077Y0141944D01*
X0263827Y0141996D01*
X0263576Y0142043D01*
X0263325Y0142084D01*
X0263072Y0142118D01*
X0262818Y0142146D01*
X0262564Y0142168D01*
X0262310Y0142183D01*
X0262055Y0142193D01*
X0261800Y0142196D01*
X0261545Y0142193D01*
X0261290Y0142183D01*
X0261036Y0142168D01*
X0260782Y0142146D01*
X0260528Y0142118D01*
X0260275Y0142084D01*
X0260024Y0142043D01*
X0259773Y0141996D01*
X0259523Y0141944D01*
X0259275Y0141885D01*
X0259029Y0141820D01*
X0258784Y0141749D01*
X0258541Y0141672D01*
X0258299Y0141589D01*
X0258060Y0141500D01*
X0257824Y0141405D01*
X0257589Y0141305D01*
X0257357Y0141199D01*
X0257128Y0141087D01*
X0256902Y0140970D01*
X0256678Y0140847D01*
X0256458Y0140718D01*
X0256241Y0140585D01*
X0256027Y0140446D01*
X0255817Y0140302D01*
X0255610Y0140152D01*
X0255407Y0139998D01*
X0255208Y0139839D01*
X0255013Y0139674D01*
X0254821Y0139506D01*
X0254635Y0139332D01*
X0254452Y0139154D01*
X0254274Y0138972D01*
X0254100Y0138785D01*
X0253931Y0138594D01*
X0253767Y0138399D01*
X0253607Y0138200D01*
X0253453Y0137997D01*
X0253303Y0137790D01*
X0253159Y0137580D01*
X0253020Y0137366D01*
X0252886Y0137149D01*
X0252757Y0136929D01*
X0252634Y0136706D01*
X0252517Y0136479D01*
X0252405Y0136250D01*
X0252447Y0136230D01*
X0252559Y0136458D01*
X0252676Y0136684D01*
X0252798Y0136906D01*
X0252926Y0137125D01*
X0253060Y0137341D01*
X0253198Y0137554D01*
X0253342Y0137763D01*
X0253491Y0137969D01*
X0253644Y0138171D01*
X0253803Y0138369D01*
X0253967Y0138563D01*
X0254135Y0138753D01*
X0254308Y0138939D01*
X0254485Y0139121D01*
X0254667Y0139298D01*
X0254853Y0139471D01*
X0255043Y0139639D01*
X0255238Y0139802D01*
X0255436Y0139961D01*
X0255638Y0140114D01*
X0255844Y0140263D01*
X0256053Y0140407D01*
X0256266Y0140545D01*
X0256482Y0140678D01*
X0256701Y0140806D01*
X0256924Y0140928D01*
X0257149Y0141045D01*
X0257377Y0141156D01*
X0257608Y0141262D01*
X0257842Y0141362D01*
X0258077Y0141456D01*
X0258315Y0141545D01*
X0258555Y0141627D01*
X0258797Y0141704D01*
X0259041Y0141775D01*
X0259287Y0141839D01*
X0259534Y0141898D01*
X0259782Y0141950D01*
X0260032Y0141997D01*
X0260282Y0142037D01*
X0260534Y0142071D01*
X0260786Y0142099D01*
X0261039Y0142121D01*
X0261292Y0142137D01*
X0261546Y0142146D01*
X0261800Y0142149D01*
X0262054Y0142146D01*
X0262308Y0142137D01*
X0262561Y0142121D01*
X0262814Y0142099D01*
X0263066Y0142071D01*
X0263318Y0142037D01*
X0263568Y0141997D01*
X0263818Y0141950D01*
X0264066Y0141898D01*
X0264313Y0141839D01*
X0264559Y0141775D01*
X0264803Y0141704D01*
X0265045Y0141627D01*
X0265285Y0141545D01*
X0265523Y0141456D01*
X0265758Y0141362D01*
X0265992Y0141262D01*
X0266223Y0141156D01*
X0266451Y0141045D01*
X0266676Y0140928D01*
X0266899Y0140806D01*
X0267118Y0140678D01*
X0267334Y0140545D01*
X0267547Y0140407D01*
X0267756Y0140263D01*
X0267962Y0140114D01*
X0268164Y0139961D01*
X0268362Y0139802D01*
X0268557Y0139639D01*
X0268747Y0139471D01*
X0268933Y0139298D01*
X0269115Y0139121D01*
X0269292Y0138939D01*
X0269465Y0138753D01*
X0269633Y0138563D01*
X0269797Y0138369D01*
X0269956Y0138171D01*
X0270109Y0137969D01*
X0270258Y0137763D01*
X0270402Y0137554D01*
X0270540Y0137341D01*
X0270674Y0137125D01*
X0270802Y0136906D01*
X0270924Y0136684D01*
X0271041Y0136458D01*
X0271153Y0136230D01*
X0271110Y0136210D01*
X0270999Y0136437D01*
X0270883Y0136662D01*
X0270761Y0136883D01*
X0270633Y0137101D01*
X0270501Y0137316D01*
X0270363Y0137528D01*
X0270220Y0137736D01*
X0270072Y0137941D01*
X0269918Y0138142D01*
X0269760Y0138339D01*
X0269598Y0138533D01*
X0269430Y0138722D01*
X0269258Y0138907D01*
X0269082Y0139088D01*
X0268901Y0139264D01*
X0268715Y0139436D01*
X0268526Y0139603D01*
X0268333Y0139766D01*
X0268135Y0139924D01*
X0267934Y0140077D01*
X0267729Y0140225D01*
X0267521Y0140368D01*
X0267309Y0140505D01*
X0267094Y0140638D01*
X0266875Y0140765D01*
X0266654Y0140887D01*
X0266430Y0141003D01*
X0266202Y0141114D01*
X0265973Y0141219D01*
X0265740Y0141319D01*
X0265506Y0141412D01*
X0265269Y0141500D01*
X0265030Y0141583D01*
X0264789Y0141659D01*
X0264546Y0141729D01*
X0264302Y0141794D01*
X0264056Y0141852D01*
X0263809Y0141904D01*
X0263560Y0141950D01*
X0263311Y0141991D01*
X0263060Y0142025D01*
X0262809Y0142052D01*
X0262557Y0142074D01*
X0262305Y0142090D01*
X0262053Y0142099D01*
X0261800Y0142102D01*
X0261547Y0142099D01*
X0261295Y0142090D01*
X0261043Y0142074D01*
X0260791Y0142052D01*
X0260540Y0142025D01*
X0260289Y0141991D01*
X0260040Y0141950D01*
X0259791Y0141904D01*
X0259544Y0141852D01*
X0259298Y0141794D01*
X0259054Y0141729D01*
X0258811Y0141659D01*
X0258570Y0141583D01*
X0258331Y0141500D01*
X0258094Y0141412D01*
X0257860Y0141319D01*
X0257627Y0141219D01*
X0257398Y0141114D01*
X0257170Y0141003D01*
X0256946Y0140887D01*
X0256725Y0140765D01*
X0256506Y0140638D01*
X0256291Y0140505D01*
X0256079Y0140368D01*
X0255871Y0140225D01*
X0255666Y0140077D01*
X0255465Y0139924D01*
X0255267Y0139766D01*
X0255074Y0139603D01*
X0254885Y0139436D01*
X0254699Y0139264D01*
X0254518Y0139088D01*
X0254342Y0138907D01*
X0254170Y0138722D01*
X0254002Y0138533D01*
X0253840Y0138339D01*
X0253682Y0138142D01*
X0253528Y0137941D01*
X0253380Y0137736D01*
X0253237Y0137528D01*
X0253099Y0137316D01*
X0252967Y0137101D01*
X0252839Y0136883D01*
X0252717Y0136662D01*
X0252601Y0136437D01*
X0252490Y0136210D01*
X0270240Y0125181D02*
X0269886Y0125459D01*
X0269887Y0125459D02*
X0270032Y0125648D01*
X0270173Y0125842D01*
X0270309Y0126038D01*
X0270441Y0126237D01*
X0270568Y0126440D01*
X0270690Y0126645D01*
X0270808Y0126853D01*
X0270921Y0127064D01*
X0271028Y0127278D01*
X0271131Y0127494D01*
X0271540Y0127306D01*
X0271433Y0127080D01*
X0271320Y0126857D01*
X0271203Y0126637D01*
X0271080Y0126420D01*
X0270952Y0126205D01*
X0270819Y0125994D01*
X0270682Y0125785D01*
X0270539Y0125580D01*
X0270392Y0125378D01*
X0270240Y0125180D01*
X0270203Y0125209D01*
X0270354Y0125407D01*
X0270501Y0125607D01*
X0270643Y0125812D01*
X0270780Y0126019D01*
X0270912Y0126230D01*
X0271039Y0126443D01*
X0271161Y0126660D01*
X0271279Y0126879D01*
X0271391Y0127101D01*
X0271497Y0127326D01*
X0271455Y0127345D01*
X0271348Y0127122D01*
X0271237Y0126901D01*
X0271120Y0126682D01*
X0270998Y0126467D01*
X0270872Y0126254D01*
X0270740Y0126045D01*
X0270604Y0125838D01*
X0270463Y0125635D01*
X0270317Y0125435D01*
X0270166Y0125238D01*
X0270129Y0125267D01*
X0270279Y0125463D01*
X0270424Y0125662D01*
X0270565Y0125864D01*
X0270701Y0126070D01*
X0270832Y0126279D01*
X0270958Y0126490D01*
X0271079Y0126705D01*
X0271195Y0126922D01*
X0271306Y0127142D01*
X0271412Y0127365D01*
X0271369Y0127384D01*
X0271264Y0127163D01*
X0271153Y0126944D01*
X0271038Y0126728D01*
X0270917Y0126514D01*
X0270792Y0126303D01*
X0270661Y0126095D01*
X0270526Y0125891D01*
X0270386Y0125689D01*
X0270242Y0125491D01*
X0270092Y0125296D01*
X0270056Y0125326D01*
X0270204Y0125519D01*
X0270348Y0125717D01*
X0270487Y0125917D01*
X0270622Y0126121D01*
X0270752Y0126328D01*
X0270876Y0126537D01*
X0270996Y0126750D01*
X0271112Y0126965D01*
X0271222Y0127183D01*
X0271326Y0127404D01*
X0271284Y0127424D01*
X0271179Y0127204D01*
X0271070Y0126987D01*
X0270955Y0126773D01*
X0270836Y0126561D01*
X0270711Y0126352D01*
X0270582Y0126146D01*
X0270448Y0125944D01*
X0270310Y0125744D01*
X0270166Y0125548D01*
X0270019Y0125355D01*
X0269982Y0125384D01*
X0270129Y0125576D01*
X0270271Y0125771D01*
X0270409Y0125970D01*
X0270543Y0126172D01*
X0270671Y0126377D01*
X0270795Y0126585D01*
X0270914Y0126795D01*
X0271028Y0127009D01*
X0271137Y0127225D01*
X0271241Y0127443D01*
X0271198Y0127463D01*
X0271095Y0127245D01*
X0270986Y0127030D01*
X0270873Y0126818D01*
X0270754Y0126608D01*
X0270631Y0126401D01*
X0270503Y0126197D01*
X0270371Y0125996D01*
X0270233Y0125799D01*
X0270091Y0125604D01*
X0269945Y0125413D01*
X0269908Y0125442D01*
X0270054Y0125632D01*
X0270195Y0125826D01*
X0270332Y0126023D01*
X0270464Y0126223D01*
X0270591Y0126426D01*
X0270714Y0126632D01*
X0270832Y0126840D01*
X0270945Y0127052D01*
X0271053Y0127266D01*
X0271156Y0127482D01*
D22*
X0262742Y0096604D02*
X0262742Y0092000D01*
X0261208Y0092000D02*
X0264277Y0092000D01*
X0261208Y0095069D02*
X0262742Y0096604D01*
X0259673Y0095837D02*
X0258906Y0096604D01*
X0257371Y0096604D01*
X0256604Y0095837D01*
X0256604Y0095069D01*
X0257371Y0094302D01*
X0258906Y0094302D01*
X0259673Y0093535D01*
X0259673Y0092767D01*
X0258906Y0092000D01*
X0257371Y0092000D01*
X0256604Y0092767D01*
X0255069Y0092767D02*
X0255069Y0096604D01*
X0252000Y0096604D02*
X0252000Y0092767D01*
X0252767Y0092000D01*
X0254302Y0092000D01*
X0255069Y0092767D01*
X0258139Y0091233D02*
X0258139Y0097371D01*
X0032367Y0073139D02*
X0026229Y0073139D01*
X0026996Y0073906D02*
X0027763Y0074673D01*
X0026996Y0073906D02*
X0026996Y0072371D01*
X0027763Y0071604D01*
X0028531Y0071604D01*
X0029298Y0072371D01*
X0029298Y0073906D01*
X0030065Y0074673D01*
X0030833Y0074673D01*
X0031600Y0073906D01*
X0031600Y0072371D01*
X0030833Y0071604D01*
X0030833Y0070069D02*
X0026996Y0070069D01*
X0026996Y0067000D02*
X0030833Y0067000D01*
X0031600Y0067767D01*
X0031600Y0069302D01*
X0030833Y0070069D01*
X0031600Y0076208D02*
X0028531Y0079277D01*
X0027763Y0079277D01*
X0026996Y0078510D01*
X0026996Y0076975D01*
X0027763Y0076208D01*
X0031600Y0076208D02*
X0031600Y0079277D01*
M02*
