%
M48
M72
T01C0.03200
T02C0.04000
T03C0.04331
T04C0.04400
T05C0.04724
T06C0.12598
T07C0.13000
%
T01
X171800Y31800
X171800Y71800
X171800Y81800
X171800Y121800
X176800Y146800
X216800Y146800
X251800Y131800
X261800Y131800
X271800Y131800
X251800Y161800
X251800Y201800
X56800Y161800
X46800Y161800
X31800Y161800
X21800Y161800
T02
X26800Y141800
X36800Y141800
X46800Y141800
X56800Y141800
X41800Y181800
X41800Y191800
X21800Y191800
X21800Y181800
X116800Y146800
X126800Y146800
X146800Y141800
X156800Y141800
X161800Y166800
X161800Y176800
X161800Y186800
X196800Y186800
X196800Y176800
X196800Y166800
X226800Y166800
X226800Y176800
X226800Y186800
X271800Y161800
X271800Y151800
X46800Y19792
X36800Y19792
T03
X36800Y41800
X46800Y41800
X56800Y41800
X66800Y41800
X76800Y41800
X86800Y41800
X96800Y41800
X106800Y41800
X116800Y41800
X126800Y41800
X126800Y116800
X116800Y116800
X106800Y116800
X96800Y116800
X86800Y116800
X76800Y116800
X66800Y116800
X56800Y116800
X46800Y116800
X36800Y116800
T04
X76800Y171800
X76800Y181800
X76800Y191800
T05
X196800Y86800
X196800Y76800
X196800Y66800
X196800Y56800
X196800Y46800
X196800Y36800
X196800Y26800
T06
X16800Y16800
X271800Y191800
T07
X135800Y181800
M30
