G75*
%MOIN*%
%OFA0B0*%
%FSLAX25Y25*%
%IPPOS*%
%LPD*%
%AMOC8*
5,1,8,0,0,1.08239X$1,22.5*
%
%ADD10C,0.07400*%
%ADD11OC8,0.06600*%
%ADD12R,0.07400X0.07400*%
%ADD13C,0.06600*%
%ADD14C,0.05200*%
%ADD15C,0.08600*%
%ADD16R,0.07600X0.07600*%
%ADD17C,0.07600*%
D10*
X0036800Y0019792D03*
X0046800Y0019792D03*
X0046800Y0141800D03*
X0036800Y0141800D03*
X0026800Y0141800D03*
X0021800Y0181800D03*
X0021800Y0191800D03*
X0041800Y0191800D03*
X0041800Y0181800D03*
X0116800Y0146800D03*
X0126800Y0146800D03*
X0146800Y0141800D03*
X0156800Y0141800D03*
X0161800Y0166800D03*
X0161800Y0176800D03*
X0161800Y0186800D03*
X0196800Y0186800D03*
X0196800Y0176800D03*
X0196800Y0166800D03*
X0226800Y0166800D03*
X0226800Y0176800D03*
X0226800Y0186800D03*
X0271800Y0161800D03*
X0271800Y0151800D03*
D11*
X0251800Y0161800D03*
X0216800Y0146800D03*
X0176800Y0146800D03*
X0171800Y0121800D03*
X0171800Y0081800D03*
X0171800Y0071800D03*
X0171800Y0031800D03*
X0056800Y0161800D03*
X0046800Y0161800D03*
X0031800Y0161800D03*
X0021800Y0161800D03*
X0251800Y0201800D03*
D12*
X0056800Y0141800D03*
D13*
X0073500Y0171800D02*
X0080100Y0171800D01*
X0080100Y0181800D02*
X0073500Y0181800D01*
X0073500Y0191800D02*
X0080100Y0191800D01*
D14*
X0251800Y0134400D02*
X0251800Y0129200D01*
X0261800Y0129200D02*
X0261800Y0134400D01*
X0271800Y0134400D02*
X0271800Y0129200D01*
D15*
X0196800Y0086800D03*
X0196800Y0076800D03*
X0196800Y0066800D03*
X0196800Y0056800D03*
X0196800Y0046800D03*
X0196800Y0036800D03*
X0196800Y0026800D03*
D16*
X0036800Y0041800D03*
D17*
X0046800Y0041800D03*
X0056800Y0041800D03*
X0066800Y0041800D03*
X0076800Y0041800D03*
X0086800Y0041800D03*
X0096800Y0041800D03*
X0106800Y0041800D03*
X0116800Y0041800D03*
X0126800Y0041800D03*
X0126800Y0116800D03*
X0116800Y0116800D03*
X0106800Y0116800D03*
X0096800Y0116800D03*
X0086800Y0116800D03*
X0076800Y0116800D03*
X0066800Y0116800D03*
X0056800Y0116800D03*
X0046800Y0116800D03*
X0036800Y0116800D03*
M02*
